<svg width="93" height="64" viewBox="0 0 93 64" fill="none" xmlns="http://www.w3.org/2000/svg">
<path d="M16.6019 55.0952V55.7456C16.6019 57.7185 16.0815 59.1061 15.0409 59.9082C14.011 60.7104 12.1899 61.1115 9.57737 61.1115H1.41465V49.7292H9.47981C12.1032 49.7292 13.946 50.1357 15.0083 50.9488C16.0707 51.7509 16.6019 53.1331 16.6019 55.0952ZM8.87817 51.7455H3.88623V59.0952H8.87817C10.3308 59.0952 11.4311 58.976 12.179 58.7375C12.927 58.499 13.4311 58.1359 13.6913 57.648C13.9623 57.1602 14.0978 56.4502 14.0978 55.5179V55.3553C14.0978 54.4231 13.9623 53.713 13.6913 53.2252C13.4311 52.7266 12.927 52.358 12.179 52.1195C11.4311 51.8702 10.3308 51.7455 8.87817 51.7455ZM29.3017 55.8919V61.1115H27.0415V59.3879H26.9765C26.467 60.6454 24.9819 61.2741 22.5212 61.2741C19.681 61.2741 18.2609 60.3635 18.2609 58.5424V58.4123C18.2718 56.8404 19.2853 56.022 21.3016 55.957L27.0415 55.7618V55.7131C27.0415 54.9976 26.8031 54.5152 26.3261 54.2659C25.86 54.0057 25.0795 53.8756 23.9846 53.8756C23.0848 53.8756 22.4182 53.9624 21.9846 54.1358C21.5509 54.2984 21.2366 54.5911 21.0415 55.0139H18.6837C18.933 54.0816 19.4588 53.4041 20.261 52.9813C21.0631 52.5477 22.3043 52.3309 23.9846 52.3309H24.4236C26.1689 52.3309 27.4155 52.6019 28.1635 53.1439C28.9223 53.6859 29.3017 54.6019 29.3017 55.8919ZM20.5536 58.3798V58.4448C20.5536 58.9218 20.765 59.2632 21.1878 59.4692C21.6214 59.6752 22.2935 59.7782 23.2041 59.7782C24.3532 59.7782 25.28 59.5722 25.9846 59.1603C26.6892 58.7483 27.0415 58.163 27.0415 57.4041V57.1602L22.2772 57.3391C21.6702 57.3608 21.2312 57.4529 20.9602 57.6155C20.6891 57.7781 20.5536 58.0329 20.5536 58.3798ZM41.719 52.4935L35.4587 63.8758H33.0684L34.727 61.0953L29.9464 52.4935H32.4018L35.8977 58.8513H36.0116L39.3612 52.4935H41.719Z" fill="white"/>
<path d="M50.3677 51.8919V61.1115H47.8961V51.8919H42.0261V49.7292H56.2377V51.8919H50.3677ZM66.1417 55.8919V61.1115H63.8815V59.3879H63.8164C63.307 60.6454 61.8218 61.2741 59.3611 61.2741C56.521 61.2741 55.1009 60.3635 55.1009 58.5424V58.4123C55.1117 56.8404 56.1253 56.022 58.1416 55.957L63.8815 55.7618V55.7131C63.8815 54.9976 63.643 54.5152 63.166 54.2659C62.6999 54.0057 61.9194 53.8756 60.8245 53.8756C59.9248 53.8756 59.2581 53.9624 58.8245 54.1358C58.3909 54.2984 58.0765 54.5911 57.8814 55.0139H55.5236C55.773 54.0816 56.2987 53.4041 57.1009 52.9813C57.9031 52.5477 59.1443 52.3309 60.8245 52.3309H61.2636C63.0088 52.3309 64.2555 52.6019 65.0035 53.1439C65.7623 53.6859 66.1417 54.6019 66.1417 55.8919ZM57.3936 58.3798V58.4448C57.3936 58.9218 57.605 59.2632 58.0277 59.4692C58.4614 59.6752 59.1335 59.7782 60.044 59.7782C61.1931 59.7782 62.1199 59.5722 62.8246 59.1603C63.5292 58.7483 63.8815 58.163 63.8815 57.4041V57.1602L59.1172 57.3391C58.5101 57.3608 58.0711 57.4529 57.8001 57.6155C57.5291 57.7781 57.3936 58.0329 57.3936 58.3798ZM73.6448 61.2741H73.2871C71.5093 61.2741 70.1922 61.0953 69.3358 60.7375C68.4795 60.369 67.932 59.7348 67.6935 58.8351H70.1163C70.3223 59.1494 70.6854 59.3662 71.2058 59.4855C71.737 59.5939 72.512 59.6481 73.531 59.6481C74.7668 59.6481 75.6178 59.5722 76.0839 59.4204C76.55 59.2578 76.7939 58.9706 76.8156 58.5586V58.5098C76.8156 58.1955 76.6639 57.9841 76.3603 57.8757C76.0568 57.7565 75.4768 57.6806 74.6205 57.648L71.4985 57.5342C70.2518 57.4909 69.3575 57.2849 68.8155 56.9163C68.2735 56.5478 68.0025 55.9678 68.0025 55.1765V54.9976C68.0025 54.022 68.4307 53.3336 69.2871 52.9325C70.1434 52.5314 71.4659 52.3309 73.2546 52.3309H73.466C75.092 52.3309 76.3061 52.526 77.1083 52.9163C77.9105 53.3065 78.4796 53.9244 78.8156 54.77H76.3603C76.0026 54.2171 74.9619 53.9407 73.2383 53.9407C72.1218 53.9407 71.3467 54.0166 70.9131 54.1683C70.4795 54.3092 70.2627 54.564 70.2627 54.9326V54.9813C70.2627 55.2957 70.409 55.5071 70.7017 55.6155C71.0269 55.7347 71.6123 55.8106 72.4578 55.8431L75.5798 55.957C76.8481 56.0112 77.7425 56.2171 78.2628 56.5749C78.794 56.9326 79.0595 57.5125 79.0595 58.3147V58.4773C79.0595 59.5288 78.6259 60.2606 77.7587 60.6725C76.8915 61.0736 75.5202 61.2741 73.6448 61.2741ZM82.9665 58.6725V61.1115H80.69V49.7292H82.9665V56.4285H83.0315L88.6576 52.4935H91.8284L86.5926 56.1521L92.2837 61.1115H89.0804L84.869 57.3879H84.8039L82.9665 58.6725Z" fill="#FED36A"/>
<g opacity="0.3">
<path d="M64.0984 16.3799C65.9781 16.1743 67.3353 14.4839 67.1298 12.6041C66.9243 10.7244 65.2338 9.36713 63.354 9.57267C61.4743 9.77821 60.1171 11.4687 60.3226 13.3484C60.5281 15.2282 62.2186 16.5854 64.0984 16.3799Z" stroke="#EB996E" stroke-width="0.376003" stroke-linecap="round" stroke-linejoin="round"/>
<path d="M66.2964 14.3656C67.0623 12.9473 66.5334 11.1768 65.1152 10.4109C63.697 9.64502 61.9264 10.1739 61.1605 11.5921C60.3946 13.0103 60.9235 14.7809 62.3417 15.5468C63.7599 16.3127 65.5305 15.7838 66.2964 14.3656Z" stroke="#EB996E" stroke-width="0.376003" stroke-linecap="round" stroke-linejoin="round"/>
<path d="M64.9692 13.5622C64.9692 12.5808 63.5772 12.5587 63.5772 12.149C63.5772 11.9336 63.6904 11.8682 63.9224 11.8682C64.1222 11.8682 64.2907 11.9548 64.4831 12.1279L64.9434 11.5985C64.7309 11.3604 64.4441 11.2014 64.1296 11.1474V10.595H63.5229V11.163C63.0027 11.2753 62.6943 11.6464 62.6943 12.1923C62.6943 13.136 64.0872 13.1958 64.0872 13.6276C64.0872 13.8375 63.9786 13.9296 63.7089 13.9296C63.4824 13.9296 63.2559 13.843 62.964 13.6276L62.5654 14.2536C62.8391 14.4798 63.1728 14.6212 63.5256 14.6606V15.2028H64.1305V14.6228C64.6912 14.4893 64.9692 14.0824 64.9692 13.5622Z" stroke="#EB996E" stroke-width="0.376003" stroke-linecap="round" stroke-linejoin="round"/>
</g>
<g opacity="0.3">
<path d="M65.7664 32.7283C66.6288 32.7283 67.3279 32.0292 67.3279 31.1669C67.3279 30.3045 66.6288 29.6054 65.7664 29.6054C64.9041 29.6054 64.205 30.3045 64.205 31.1669C64.205 32.0292 64.9041 32.7283 65.7664 32.7283Z" stroke="#EB996E" stroke-width="0.376003" stroke-linecap="round" stroke-linejoin="round"/>
<path d="M66.7074 32.1084C67.2273 31.5885 67.2273 30.7456 66.7074 30.2257C66.1875 29.7058 65.3446 29.7058 64.8247 30.2257C64.3048 30.7456 64.3048 31.5885 64.8247 32.1084C65.3446 32.6283 66.1875 32.6283 66.7074 32.1084Z" stroke="#EB996E" stroke-width="0.376003" stroke-linecap="round" stroke-linejoin="round"/>
<path d="M66.3327 31.4339C66.3327 30.9864 65.6974 30.9735 65.6974 30.7894C65.6974 30.6909 65.749 30.6614 65.8548 30.6614C65.9524 30.6663 66.0443 30.7085 66.1117 30.7793L66.3207 30.5381C66.2242 30.4304 66.0946 30.3579 65.9524 30.3318V30.0805H65.6762V30.3392C65.5643 30.3554 65.4626 30.413 65.3911 30.5006C65.3197 30.5883 65.2838 30.6996 65.2905 30.8124C65.2905 31.2433 65.9257 31.2727 65.9257 31.467C65.9257 31.5637 65.876 31.6051 65.7536 31.6051C65.6281 31.5982 65.5085 31.5496 65.4139 31.467L65.2297 31.7533C65.3547 31.8562 65.507 31.9202 65.6679 31.9375V32.1851H65.9441V31.9172C66.0568 31.898 66.1584 31.8382 66.23 31.7492C66.3016 31.6601 66.3381 31.548 66.3327 31.4339Z" stroke="#EB996E" stroke-width="0.376003" stroke-linecap="round" stroke-linejoin="round"/>
</g>
<g opacity="0.3">
<path d="M37.7161 6.35593C39.0526 6.14209 39.9628 4.88528 39.7489 3.54875C39.5351 2.21223 38.2783 1.30211 36.9417 1.51595C35.6052 1.72979 34.6951 2.9866 34.9089 4.32313C35.1228 5.65965 36.3796 6.56976 37.7161 6.35593Z" stroke="#EB996E" stroke-width="0.376003" stroke-linecap="round" stroke-linejoin="round"/>
<path d="M39.0929 5.05689C39.711 4.08268 39.4222 2.79193 38.448 2.17392C37.4738 1.55591 36.183 1.84466 35.565 2.81887C34.947 3.79307 35.2358 5.08382 36.21 5.70183C37.1842 6.31984 38.4749 6.03109 39.0929 5.05689Z" stroke="#EB996E" stroke-width="0.376003" stroke-linecap="round" stroke-linejoin="round"/>
<path d="M38.217 4.35666C38.217 3.65421 37.2208 3.63856 37.2208 3.34395C37.2208 3.1902 37.3018 3.14325 37.4685 3.14325C37.6211 3.15017 37.7651 3.2162 37.8699 3.32738L38.1976 2.94899C38.0455 2.77828 37.8401 2.66406 37.6149 2.62492V2.23273H37.1822V2.64057C37.0096 2.66828 36.8534 2.75884 36.7436 2.89481C36.6338 3.03079 36.5782 3.20257 36.5874 3.37709C36.5874 4.05285 37.5836 4.0952 37.5836 4.40454C37.5836 4.5546 37.5072 4.62089 37.3138 4.62089C37.1518 4.62089 36.9888 4.55921 36.7808 4.40454L36.4954 4.85013C36.6907 5.01268 36.9296 5.11417 37.1822 5.14198V5.53141H37.6149V5.1162C37.7901 5.08388 37.9477 4.98909 38.0585 4.84943C38.1692 4.70976 38.2255 4.53469 38.217 4.35666Z" stroke="#EB996E" stroke-width="0.376003" stroke-linecap="round" stroke-linejoin="round"/>
</g>
<g opacity="0.3">
<path d="M18.1658 33.1393C19.017 33.0011 19.5951 32.1991 19.4569 31.3479C19.3187 30.4967 18.5167 29.9186 17.6655 30.0568C16.8143 30.195 16.2362 30.997 16.3744 31.8482C16.5126 32.6994 17.3146 33.2775 18.1658 33.1393Z" stroke="#EB996E" stroke-width="0.376003" stroke-linecap="round" stroke-linejoin="round"/>
<path d="M19.2452 31.5987C19.2452 31.3354 19.1671 31.078 19.0208 30.859C18.8745 30.6401 18.6666 30.4695 18.4234 30.3687C18.1801 30.268 17.9124 30.2416 17.6542 30.293C17.396 30.3443 17.1588 30.4711 16.9726 30.6573C16.7864 30.8435 16.6596 31.0807 16.6082 31.3389C16.5569 31.5972 16.5832 31.8648 16.684 32.1081C16.7848 32.3514 16.9554 32.5593 17.1743 32.7056C17.3932 32.8518 17.6506 32.9299 17.9139 32.9299C18.267 32.9299 18.6056 32.7897 18.8553 32.54C19.1049 32.2903 19.2452 31.9517 19.2452 31.5987V31.5987Z" stroke="#EB996E" stroke-width="0.376003" stroke-linecap="round" stroke-linejoin="round"/>
<path d="M18.4801 31.8665C18.4801 31.4182 17.8458 31.4062 17.8458 31.2221C17.8458 31.1236 17.8974 31.0941 18.0032 31.0941C18.1006 31.0989 18.1923 31.1411 18.2592 31.212L18.4682 30.9707C18.3719 30.863 18.2422 30.7906 18.0999 30.7654V30.5132H17.8237V30.7728C17.7136 30.7902 17.6138 30.8478 17.5437 30.9346C17.4736 31.0213 17.4383 31.131 17.4444 31.2423C17.4444 31.6723 18.0797 31.7027 18.0797 31.8969C18.0797 31.989 18.0309 32.0341 17.9075 32.0341C17.7821 32.0275 17.6626 31.9792 17.5678 31.8969L17.3837 32.1823C17.5089 32.2847 17.6611 32.3487 17.8219 32.3664V32.6132H18.0981V32.3499C18.2097 32.3296 18.3101 32.2694 18.3804 32.1804C18.4508 32.0914 18.4862 31.9798 18.4801 31.8665V31.8665Z" stroke="#EB996E" stroke-width="0.376003" stroke-linecap="round" stroke-linejoin="round"/>
</g>
<g opacity="0.3">
<path d="M57.0625 40.1354C57.9152 40.0072 58.5026 39.212 58.3744 38.3592C58.2462 37.5065 57.451 36.9191 56.5982 37.0473C55.7454 37.1755 55.1581 37.9708 55.2863 38.8235C55.4145 39.6763 56.2097 40.2637 57.0625 40.1354Z" stroke="#EB996E" stroke-width="0.376003" stroke-linecap="round" stroke-linejoin="round"/>
<path d="M58.1601 38.5937C58.1597 38.3305 58.0813 38.0733 57.9348 37.8546C57.7883 37.6359 57.5803 37.4656 57.337 37.3651C57.0937 37.2646 56.8261 37.2385 56.568 37.2901C56.3099 37.3417 56.0728 37.4686 55.8868 37.6549C55.7008 37.8411 55.5742 38.0783 55.523 38.3365C55.4718 38.5947 55.4983 38.8623 55.5991 39.1054C55.6999 39.3486 55.8705 39.5564 56.0894 39.7026C56.3083 39.8488 56.5656 39.9268 56.8288 39.9268C57.0038 39.9269 57.1771 39.8925 57.3388 39.8256C57.5005 39.7586 57.6474 39.6604 57.7711 39.5365C57.8947 39.4127 57.9928 39.2657 58.0595 39.1039C58.1263 38.9421 58.1604 38.7687 58.1601 38.5937V38.5937Z" stroke="#EB996E" stroke-width="0.376003" stroke-linecap="round" stroke-linejoin="round"/>
<path d="M57.395 38.8607C57.395 38.4133 56.7607 38.4004 56.7607 38.2163C56.7607 38.1178 56.8122 38.0883 56.9181 38.0883C57.0154 38.0931 57.1072 38.1353 57.1741 38.2062L57.383 37.9649C57.2869 37.8568 57.1572 37.7842 57.0148 37.7587V37.5074H56.7386V37.767C56.6286 37.7844 56.529 37.8419 56.4589 37.9284C56.3889 38.015 56.3534 38.1244 56.3593 38.2356C56.3593 38.6665 56.9945 38.6959 56.9945 38.8911C56.9945 38.9832 56.9457 39.0283 56.8224 39.0283C56.697 39.0217 56.5774 38.9734 56.4827 38.8911L56.2985 39.1765C56.4238 39.2789 56.576 39.3429 56.7368 39.3607V39.6074H57.0129V39.3432C57.1243 39.3228 57.2245 39.2626 57.2947 39.1738C57.365 39.0851 57.4007 38.9738 57.395 38.8607Z" stroke="#EB996E" stroke-width="0.376003" stroke-linecap="round" stroke-linejoin="round"/>
</g>
<g opacity="0.3">
<path d="M25.9475 15.4413C26.8099 15.4413 27.5089 14.7422 27.5089 13.8798C27.5089 13.0175 26.8099 12.3184 25.9475 12.3184C25.0852 12.3184 24.3861 13.0175 24.3861 13.8798C24.3861 14.7422 25.0852 15.4413 25.9475 15.4413Z" stroke="#EB996E" stroke-width="0.376003" stroke-linecap="round" stroke-linejoin="round"/>
<path d="M27.1993 14.3317C27.4496 13.6404 27.092 12.877 26.4007 12.6268C25.7094 12.3765 24.9461 12.7341 24.6958 13.4254C24.4455 14.1167 24.8031 14.8801 25.4944 15.1303C26.1858 15.3806 26.9491 15.023 27.1993 14.3317Z" stroke="#EB996E" stroke-width="0.376003" stroke-linecap="round" stroke-linejoin="round"/>
<path d="M26.5147 14.1487C26.5147 13.7003 25.8794 13.6883 25.8794 13.5042C25.8794 13.4057 25.931 13.3762 26.0368 13.3762C26.1344 13.381 26.2262 13.4236 26.2928 13.495L26.5018 13.2538C26.4056 13.1457 26.2759 13.073 26.1335 13.0476V12.7953H25.8573V13.0549C25.7472 13.0725 25.6476 13.1302 25.5776 13.2169C25.5075 13.3036 25.4721 13.4132 25.478 13.5245C25.478 13.9553 26.1132 13.9848 26.1132 14.1791C26.1132 14.2711 26.0645 14.3171 25.9411 14.3171C25.8157 14.31 25.6962 14.2614 25.6014 14.1791L25.4172 14.4645C25.5425 14.5669 25.6947 14.6308 25.8555 14.6486V14.8962H26.1317V14.6311C26.2432 14.6109 26.3436 14.5508 26.414 14.462C26.4845 14.3733 26.5203 14.2619 26.5147 14.1487V14.1487Z" stroke="#EB996E" stroke-width="0.376003" stroke-linecap="round" stroke-linejoin="round"/>
</g>
<g opacity="0.3">
<path d="M24.9801 36.203C26.8598 35.9968 28.2164 34.3058 28.0102 32.4261C27.804 30.5465 26.1131 29.1898 24.2334 29.396C22.3537 29.6022 20.9971 31.2931 21.2033 33.1728C21.4095 35.0525 23.1004 36.4091 24.9801 36.203Z" stroke="#EB996E" stroke-width="0.376003" stroke-linecap="round" stroke-linejoin="round"/>
<path d="M27.2258 34.0883C27.9389 32.6428 27.3453 30.8929 25.8998 30.1798C24.4543 29.4666 22.7044 30.0603 21.9913 31.5058C21.2781 32.9513 21.8718 34.7012 23.3173 35.4143C24.7627 36.1274 26.5126 35.5338 27.2258 34.0883Z" stroke="#EB996E" stroke-width="0.376003" stroke-linecap="round" stroke-linejoin="round"/>
<path d="M25.8508 33.3847C25.8508 32.4024 24.4588 32.3812 24.4588 31.9706C24.4588 31.7552 24.572 31.6898 24.804 31.6898C25.0038 31.6898 25.1723 31.7764 25.3656 31.9494L25.826 31.4201C25.6128 31.1824 25.3258 31.0234 25.0112 30.969V30.4166H24.4045V30.9855C23.8852 31.0978 23.5759 31.4689 23.5759 32.0139C23.5759 32.9585 24.9679 33.0174 24.9679 33.4492C24.9679 33.66 24.8602 33.7512 24.5905 33.7512C24.364 33.7512 24.1366 33.6646 23.8457 33.4492L23.4461 34.0752C23.7199 34.3012 24.0535 34.4426 24.4063 34.4821V35.0244H25.0112V34.4444C25.5728 34.3109 25.8508 33.904 25.8508 33.3847Z" stroke="#EB996E" stroke-width="0.376003" stroke-linecap="round" stroke-linejoin="round"/>
</g>
<path d="M22.6461 16.3297C22.6682 16.7689 22.2981 17.6821 22.2981 17.6831C22.2981 17.684 21.7696 17.2568 21.7401 17.2227C21.394 16.86 20.9373 15.9568 21.2043 15.4634C21.251 15.3826 21.3141 15.3125 21.3896 15.2578C21.4651 15.203 21.5513 15.1647 21.6426 15.1455C21.7338 15.1262 21.8281 15.1263 21.9193 15.1459C22.0105 15.1654 22.0966 15.204 22.1719 15.259C22.4988 15.4845 22.6267 15.9559 22.6461 16.3297Z" fill="#BC9434"/>
<path d="M31.6058 25.0538L31.6629 25.0878L31.6703 25.4846L31.4327 25.3383C31.2035 25.1956 30.9614 25.039 30.7137 24.8779C30.5223 25.0864 30.3188 25.2835 30.1042 25.4681C30.2939 25.8474 30.374 26.6649 30.3804 26.7699C30.6465 26.7634 30.9052 26.7542 31.1492 26.7422C31.3167 26.734 31.4778 26.7247 31.6334 26.7146L31.5027 27.0608C31.3913 27.0608 31.279 27.0691 31.1621 27.0718C30.8923 27.0792 30.6041 27.0829 30.3077 27.0829C30.2911 27.1888 30.1493 28.0588 29.9219 28.404C29.7157 28.7161 29.3696 29.0567 28.97 29.0816C28.8778 29.0903 28.7848 29.0797 28.6969 29.0503C28.6091 29.021 28.5284 28.9735 28.4599 28.9111C28.3915 28.8487 28.3369 28.7726 28.2997 28.6878C28.2624 28.603 28.2433 28.5114 28.2436 28.4187C28.2648 27.8571 29.1173 27.314 29.5997 27.1759C29.6283 27.1685 29.9468 27.116 30.1475 27.0838C30.0269 27.0838 29.9091 27.0838 29.7848 27.0838C29.538 27.0838 29.2922 27.0709 29.0271 27.0617L28.6404 27.0341C28.5115 27.0276 28.3753 27.0046 28.2418 26.9899C27.9315 26.9503 27.6203 26.8978 27.3073 26.8325C27.3073 27.0479 27.2834 27.8139 27.1232 28.1554C26.963 28.497 26.673 28.8855 26.2854 28.9702C26.1949 28.9931 26.1005 28.9966 26.0085 28.9806C25.9165 28.9646 25.829 28.9294 25.7515 28.8773C25.674 28.8252 25.6084 28.7573 25.5589 28.6782C25.5094 28.599 25.4771 28.5103 25.4642 28.4178C25.3997 27.8599 26.1602 27.1915 26.6168 26.9844C26.6444 26.9715 26.9851 26.8601 27.1793 26.8002C26.9952 26.7607 26.8037 26.7229 26.615 26.6769C26.07 26.5443 25.5231 26.3933 24.9762 26.2451L24.4763 26.1171C24.4763 26.1945 24.4717 27.1059 24.2922 27.488C24.1357 27.8277 23.8411 28.218 23.4544 28.3027C23.3639 28.3258 23.2695 28.3294 23.1774 28.3135C23.0854 28.2976 22.9977 28.2624 22.9202 28.2102C22.8427 28.1581 22.7771 28.0902 22.7276 28.0109C22.6781 27.9317 22.646 27.8429 22.6332 27.7503C22.5687 27.1924 23.3292 26.524 23.7849 26.3169C23.8199 26.3013 24.3152 26.1411 24.4432 26.107C24.0749 26.0094 23.7067 25.9164 23.3384 25.84C22.8432 25.7338 22.3416 25.6597 21.8368 25.6181C21.8368 25.654 21.8368 26.6051 21.6527 26.9991C21.4953 27.3388 21.2016 27.7283 20.8149 27.813C20.7243 27.8361 20.6298 27.8399 20.5377 27.824C20.4455 27.8082 20.3577 27.773 20.2801 27.7209C20.2025 27.6687 20.1368 27.6007 20.0873 27.5214C20.0377 27.4421 20.0055 27.3532 19.9928 27.2606C19.9292 26.7036 20.6888 26.0343 21.1454 25.8271C21.1813 25.8115 21.7144 25.643 21.8129 25.6144C21.7834 25.6144 21.754 25.6071 21.7208 25.6052C21.2136 25.5777 20.7049 25.5953 20.2008 25.6577C19.9246 25.689 19.6576 25.7341 19.4008 25.7838C19.4192 25.9615 19.4928 26.7717 19.3695 27.1427C19.2507 27.4981 19.0012 27.917 18.6256 28.044C18.5391 28.075 18.4472 28.0877 18.3556 28.0814C18.2639 28.075 18.1746 28.0497 18.0933 28.007C18.0119 27.9644 17.9403 27.9053 17.883 27.8335C17.8257 27.7618 17.7838 27.6789 17.7602 27.5902C17.635 27.0378 18.3126 26.2948 18.748 26.0389C18.7711 26.0251 19.0242 25.91 19.2084 25.828C19.0924 25.8529 18.9736 25.8759 18.8631 25.9008C18.4497 25.9928 18.076 26.107 17.7464 26.2092C17.5622 26.269 17.3919 26.3261 17.2354 26.3813C17.1627 26.5655 16.8589 27.302 16.5836 27.5662C16.3083 27.8304 15.8996 28.0836 15.5083 28.0265C15.117 27.9695 14.838 27.6086 14.9402 27.2173C15.0811 26.6741 16.0312 26.3243 16.532 26.2966C16.5753 26.2966 17.2557 26.3335 17.252 26.3427V26.3537C17.4021 26.2976 17.5622 26.2386 17.7399 26.1788C18.0677 26.0692 18.4396 25.9486 18.853 25.8446C19.2971 25.7261 19.7477 25.6339 20.2027 25.5684C20.7116 25.4941 21.2261 25.4652 21.7401 25.4819H21.7586C21.603 25.4266 21.1758 25.2572 21.1445 25.2407C20.7026 25.0041 19.9872 24.2887 20.0867 23.7363C20.1057 23.6451 20.1438 23.5588 20.1985 23.4833C20.2531 23.4077 20.3231 23.3445 20.4037 23.2978C20.4844 23.251 20.5741 23.2218 20.6668 23.212C20.7595 23.2023 20.8533 23.2121 20.9419 23.241C21.3231 23.3506 21.5864 23.7575 21.7254 24.1073C21.8773 24.5014 21.823 25.4147 21.8175 25.4883C22.3402 25.5185 22.8602 25.5834 23.3743 25.6826C23.6735 25.7387 23.9746 25.805 24.2747 25.875C24.1421 25.8225 24.0243 25.7746 24.0086 25.7664C23.5658 25.5297 22.8514 24.8144 22.9508 24.262C22.9699 24.1707 23.008 24.0845 23.0626 24.0089C23.1172 23.9333 23.1872 23.8701 23.2678 23.8233C23.3485 23.7764 23.4381 23.7471 23.5308 23.7372C23.6236 23.7273 23.7174 23.7371 23.8061 23.7658C24.1872 23.8753 24.4551 24.2832 24.5896 24.633C24.724 24.9829 24.6954 25.7673 24.6816 25.9735C24.7967 26.0011 24.9118 26.0278 25.0259 26.0564C25.5783 26.1926 26.1307 26.3326 26.6684 26.4504C26.859 26.4927 27.0495 26.5277 27.2392 26.5627C27.1213 26.5158 27.0228 26.4762 27.009 26.4706C26.5662 26.235 25.8508 25.5187 25.9512 24.9663C25.9703 24.875 26.0084 24.7888 26.063 24.7132C26.1176 24.6377 26.1876 24.5745 26.2683 24.5277C26.349 24.481 26.4386 24.4518 26.5313 24.442C26.6241 24.4323 26.7178 24.4421 26.8065 24.471C27.1867 24.5806 27.4555 24.9884 27.5899 25.3373C27.7244 25.6863 27.6986 26.3961 27.682 26.641C27.8772 26.6713 28.0733 26.7017 28.2639 26.722C28.3946 26.733 28.5189 26.7533 28.6505 26.757L29.0381 26.7763C29.2849 26.7763 29.539 26.7837 29.7802 26.7809C29.9468 26.7809 30.107 26.7763 30.2672 26.7726C30.0766 26.733 29.7047 26.6474 29.6743 26.6364C29.2642 26.4745 28.9023 26.2105 28.6229 25.8695C28.5766 25.8534 28.5319 25.833 28.4894 25.8087C28.4069 25.7651 28.3346 25.7046 28.277 25.6312C28.2195 25.5578 28.1781 25.473 28.1555 25.3825C28.1329 25.292 28.1296 25.1977 28.1459 25.1059C28.1622 25.014 28.1977 24.9266 28.25 24.8494C28.5769 24.3937 29.5887 24.4084 30.0656 24.5621C30.0941 24.5713 30.3887 24.703 30.5728 24.7895C30.4725 24.7223 30.374 24.6579 30.2709 24.587C30.0665 24.4489 29.8667 24.3053 29.6513 24.1515L29.3502 23.9076C29.2462 23.8311 29.1458 23.7372 29.0418 23.6507C28.8061 23.4472 28.576 23.2281 28.3495 23.0062C28.2289 23.1849 27.7888 23.8127 27.4684 24.0107C27.148 24.2086 26.6905 24.3707 26.3213 24.2279C25.9521 24.0852 25.7551 23.6756 25.9383 23.3165C26.1924 22.8157 27.1959 22.6776 27.6875 22.7558C27.7188 22.7614 28.0668 22.858 28.2574 22.9142C28.123 22.7779 27.9877 22.6426 27.8551 22.4999C27.4739 22.0893 27.1002 21.6612 26.7264 21.2358C26.6113 21.106 26.4953 20.9771 26.3802 20.8482C26.3379 20.9127 25.8278 21.6704 25.4725 21.8923C25.1548 22.0893 24.6945 22.2513 24.3253 22.1086C24.2373 22.078 24.1566 22.0292 24.0886 21.9654C24.0206 21.9016 23.9668 21.8242 23.9307 21.7382C23.8946 21.6523 23.877 21.5597 23.879 21.4665C23.881 21.3733 23.9026 21.2815 23.9423 21.1972C24.1974 20.6973 25.1999 20.5582 25.6916 20.6374C25.7293 20.6439 26.2311 20.7829 26.3563 20.8215C26.1022 20.5371 25.8462 20.2563 25.5829 19.993C25.2285 19.6315 24.8512 19.2932 24.4533 18.9803C24.434 19.0106 23.9083 19.8033 23.5419 20.0307C23.2233 20.2277 22.763 20.3907 22.3938 20.248C22.3057 20.2173 22.225 20.1684 22.1571 20.1045C22.0891 20.0406 22.0353 19.9631 21.9993 19.877C21.9633 19.791 21.9457 19.6983 21.9479 19.605C21.95 19.5117 21.9718 19.4199 22.0117 19.3356C22.2658 18.8357 23.2684 18.6976 23.761 18.7759C23.8006 18.7823 24.3401 18.9333 24.4358 18.9674C24.4128 18.949 24.3907 18.9278 24.3668 18.9103C23.9588 18.6079 23.5251 18.342 23.0705 18.1158C22.821 17.9887 22.5752 17.8801 22.334 17.7797C22.2511 17.9381 21.8644 18.6543 21.5579 18.8956C21.2513 19.1368 20.8213 19.3384 20.4402 19.2371C20.3493 19.2162 20.2638 19.1765 20.1893 19.1204C20.1148 19.0644 20.0529 18.9933 20.0077 18.9118C19.9625 18.8302 19.9349 18.7401 19.9268 18.6472C19.9186 18.5543 19.9301 18.4608 19.9605 18.3726C20.1576 17.8479 21.139 17.6002 21.6398 17.6241C21.6674 17.6241 21.9427 17.6693 22.1425 17.7042C22.0329 17.661 21.9206 17.6122 21.8147 17.5744C21.417 17.4253 21.0441 17.313 20.7099 17.2154C20.5258 17.162 20.349 17.1178 20.1879 17.0773C20.0259 17.1896 19.3676 17.6352 18.9911 17.7052C18.6145 17.7751 18.1349 17.7604 17.8421 17.4943C17.5494 17.2283 17.5135 16.7762 17.8145 16.5065C18.2316 16.1308 19.2167 16.3638 19.6503 16.6151C19.6871 16.6372 20.234 17.0451 20.2257 17.0515L20.2156 17.0579C20.3711 17.0938 20.5378 17.1334 20.7191 17.1804C21.0533 17.2725 21.429 17.3746 21.8313 17.5164C22.2664 17.6638 22.6924 17.8366 23.1073 18.0338C23.5726 18.253 24.0178 18.5127 24.4376 18.8099L24.4515 18.8219C24.3529 18.6902 24.0906 18.3128 24.0731 18.2815C23.8346 17.8405 23.633 16.849 24.0215 16.4402C24.0878 16.3747 24.1671 16.3239 24.2543 16.2911C24.3415 16.2583 24.4347 16.2442 24.5277 16.2497C24.6207 16.2553 24.7115 16.2804 24.7941 16.3233C24.8768 16.3663 24.9495 16.4262 25.0075 16.4991C25.2653 16.8002 25.2635 17.2881 25.1834 17.6536C25.0913 18.0661 24.5389 18.798 24.4993 18.856C24.9229 19.1702 25.3249 19.5126 25.7026 19.8806C25.9217 20.0933 26.1362 20.3134 26.3471 20.5371C26.2661 20.4211 26.1933 20.3161 26.185 20.3005C25.9466 19.8595 25.745 18.867 26.1335 18.4592C26.1998 18.3937 26.2791 18.3429 26.3663 18.3101C26.4535 18.2773 26.5466 18.2632 26.6396 18.2687C26.7326 18.2743 26.8234 18.2994 26.9061 18.3423C26.9888 18.3853 27.0615 18.4452 27.1195 18.5181C27.3773 18.8191 27.3754 19.3071 27.2953 19.6726C27.2152 20.0381 26.7577 20.677 26.6343 20.8436C26.7153 20.9302 26.7963 21.0158 26.8764 21.1023C27.2604 21.5203 27.6415 21.9383 28.0282 22.3369C28.1644 22.4778 28.3044 22.6131 28.4425 22.7457C28.3707 22.6417 28.3108 22.5542 28.3025 22.5395C28.0641 22.0985 27.8625 21.107 28.251 20.6982C28.5272 20.4063 28.9875 20.4625 29.237 20.7571C29.4865 21.0517 29.4929 21.547 29.4128 21.9125C29.3327 22.278 28.9194 22.8543 28.7739 23.0523C28.9203 23.1858 29.0667 23.3193 29.2149 23.4417C29.3171 23.5227 29.411 23.6084 29.5187 23.6838L29.8308 23.9131C30.0352 24.0521 30.2442 24.1966 30.4467 24.3265C30.5867 24.4185 30.7229 24.5032 30.8582 24.5888C30.7211 24.4507 30.4578 24.1736 30.4384 24.1479C30.1355 23.7483 29.7866 22.7991 30.1088 22.3388C30.1644 22.264 30.2352 22.2017 30.3164 22.156C30.3977 22.1103 30.4876 22.0822 30.5804 22.0735C30.6732 22.0648 30.7668 22.0757 30.8551 22.1056C30.9434 22.1354 31.0245 22.1835 31.093 22.2467C31.3922 22.5054 31.4613 22.9878 31.441 23.3616C31.4143 23.7731 31.0028 24.5502 30.9503 24.6505C31.1749 24.7941 31.395 24.9295 31.6058 25.0538Z" fill="#BC9434"/>
<path d="M19.3225 25.7258C19.3225 25.736 18.6468 25.6614 18.6044 25.6522C18.1156 25.5408 17.2363 25.039 17.1866 24.4802C17.1811 24.3871 17.1952 24.2939 17.2281 24.2066C17.2609 24.1193 17.3118 24.0399 17.3774 23.9735C17.4429 23.9072 17.5217 23.8554 17.6086 23.8215C17.6955 23.7876 17.7886 23.7724 17.8817 23.7768C18.2776 23.7814 18.644 24.1036 18.8659 24.4056C19.1264 24.7591 19.3225 25.7249 19.3225 25.7258Z" fill="#BC9434"/>
<path d="M68.2292 16.3297C68.2071 16.7689 68.5763 17.6821 68.5763 17.6831C68.5763 17.684 69.1047 17.2568 69.1351 17.2227C69.4813 16.86 69.9379 15.9568 69.6709 15.4634C69.6243 15.3826 69.5612 15.3125 69.4857 15.2578C69.4101 15.203 69.324 15.1647 69.2327 15.1455C69.1414 15.1262 69.0471 15.1263 68.9559 15.1459C68.8647 15.1654 68.7787 15.204 68.7033 15.259C68.3756 15.4845 68.2476 15.9559 68.2292 16.3297Z" fill="#BC9434"/>
<path d="M59.2695 25.0538L59.2115 25.0878L59.205 25.4846L59.4426 25.3382C59.6718 25.1955 59.9139 25.039 60.1607 24.8779C60.3521 25.0864 60.5556 25.2835 60.7701 25.4681C60.5805 25.8474 60.5013 26.6649 60.4939 26.7698C60.2279 26.7634 59.9701 26.7542 59.7261 26.7422C59.5576 26.7339 59.3965 26.7247 59.2419 26.7146L59.3735 27.0635C59.484 27.0635 59.5963 27.0718 59.7132 27.0746C59.983 27.0819 60.2721 27.0856 60.5685 27.0856C60.5851 27.1915 60.7269 28.0615 60.9543 28.4068C61.1605 28.7189 61.5066 29.0595 61.9053 29.0844C61.9981 29.0935 62.0918 29.0831 62.1803 29.0536C62.2688 29.0242 62.3501 28.9764 62.4189 28.9134C62.4877 28.8504 62.5424 28.7737 62.5796 28.6881C62.6167 28.6026 62.6354 28.5102 62.6344 28.4169C62.6133 27.8553 61.7607 27.3121 61.2783 27.174C61.2498 27.1666 60.9312 27.1142 60.7259 27.0819C60.8475 27.0819 60.9644 27.0819 61.0942 27.0819C61.3409 27.0819 61.5867 27.0691 61.851 27.0599L62.2376 27.0322C62.3675 27.0258 62.5028 27.0028 62.6372 26.988C62.9465 26.9485 63.2586 26.896 63.5717 26.8306C63.5717 27.046 63.5947 27.812 63.7558 28.1536C63.9169 28.4951 64.2069 28.8837 64.5936 28.9684C64.6842 28.9912 64.7786 28.9948 64.8706 28.9788C64.9626 28.9628 65.0503 28.9276 65.1278 28.8755C65.2054 28.8234 65.2711 28.7556 65.3207 28.6764C65.3703 28.5972 65.4027 28.5085 65.4157 28.416C65.4792 27.8581 64.7197 27.1897 64.2631 26.9825C64.2345 26.9696 63.8948 26.8582 63.7006 26.7984C63.8847 26.7588 64.0753 26.7211 64.2649 26.675C64.809 26.5424 65.3568 26.3915 65.9037 26.2432L66.3953 26.1171C66.3953 26.1944 66.3999 27.1059 66.5794 27.488C66.7359 27.8277 67.0296 28.218 67.4163 28.3027C67.803 28.3874 68.1924 28.1545 68.2384 27.7503C68.302 27.1924 67.5424 26.524 67.0858 26.3169C67.0517 26.3012 66.5564 26.141 66.4284 26.107C66.7967 26.0094 67.165 25.9164 67.5332 25.84C68.0281 25.7338 68.5294 25.6597 69.0339 25.6181C69.0339 25.654 69.0339 26.6051 69.218 26.9991C69.3745 27.3388 69.6691 27.7282 70.0558 27.8129C70.1463 27.836 70.2407 27.8396 70.3327 27.8237C70.4248 27.8078 70.5124 27.7726 70.59 27.7204C70.6675 27.6683 70.7331 27.6004 70.7826 27.5211C70.832 27.4419 70.8642 27.3531 70.877 27.2606C70.9415 26.7036 70.1819 26.0342 69.7253 25.8271C69.6894 25.8115 69.1563 25.643 69.0569 25.6144C69.0863 25.6144 69.1167 25.6071 69.1489 25.6052C69.6559 25.5777 70.1642 25.5953 70.668 25.6577C70.9442 25.689 71.2121 25.7341 71.4681 25.7838C71.4506 25.9615 71.376 26.7717 71.5003 27.1427C71.6191 27.4981 71.8685 27.917 72.2433 28.044C72.3301 28.0761 72.4228 28.0896 72.5152 28.0838C72.6077 28.078 72.6979 28.0529 72.78 28.0101C72.8622 27.9674 72.9345 27.908 72.9924 27.8356C73.0503 27.7633 73.0924 27.6797 73.116 27.5901C73.2412 27.0378 72.5636 26.2948 72.1282 26.0389C72.1052 26.025 71.852 25.91 71.6678 25.828C71.7829 25.8529 71.9026 25.8759 72.0131 25.9008C72.4265 25.9928 72.7993 26.107 73.1289 26.2092C73.313 26.269 73.4843 26.3261 73.6408 26.3813C73.7135 26.5655 74.0173 27.302 74.2926 27.5662C74.5679 27.8304 74.9757 28.0836 75.367 28.0265C75.4596 28.0153 75.5488 27.9848 75.6289 27.9369C75.7089 27.889 75.778 27.8249 75.8316 27.7486C75.8853 27.6723 75.9223 27.5855 75.9403 27.494C75.9582 27.4025 75.9568 27.3082 75.936 27.2173C75.7942 26.6741 74.8441 26.3243 74.3442 26.2966C74.3009 26.2966 73.6205 26.3335 73.6242 26.3427V26.3537C73.4751 26.2976 73.314 26.2386 73.1372 26.1788C72.8085 26.0692 72.4375 25.9486 72.0241 25.8446C71.5801 25.7262 71.1294 25.6339 70.6745 25.5684C70.1655 25.4941 69.651 25.4652 69.137 25.4819H69.1186C69.2732 25.4266 69.7013 25.2572 69.7326 25.2407C70.1746 25.004 70.8899 24.2887 70.7895 23.7363C70.7705 23.645 70.7324 23.5588 70.6777 23.4832C70.6231 23.4077 70.5532 23.3445 70.4725 23.2977C70.3918 23.251 70.3021 23.2218 70.2094 23.212C70.1167 23.2023 70.0229 23.2121 69.9343 23.241C69.554 23.3506 69.2852 23.7575 69.1508 24.1073C68.9989 24.5014 69.0587 25.4147 69.0587 25.4883C68.5355 25.518 68.0147 25.5826 67.5001 25.6816C67.1999 25.7378 66.8998 25.8041 66.5997 25.8741C66.7322 25.8216 66.8501 25.7737 66.8657 25.7654C67.3077 25.5288 68.023 24.8135 67.9236 24.2611C67.9045 24.1698 67.8664 24.0836 67.8117 24.008C67.7571 23.9324 67.6872 23.8691 67.6065 23.8223C67.5259 23.7755 67.4363 23.7462 67.3435 23.7363C67.2508 23.7264 67.157 23.7361 67.0683 23.7649C66.6871 23.8744 66.4183 24.2823 66.2839 24.6321C66.1495 24.9819 66.1789 25.7663 66.1918 25.9726L65.8466 26.0554C65.2942 26.1917 64.7473 26.3316 64.2051 26.4495C64.0136 26.4918 63.8239 26.5268 63.6343 26.5618C63.7512 26.5148 63.8497 26.4752 63.8644 26.4697C64.3063 26.234 65.0217 25.5178 64.9223 24.9654C64.9032 24.8741 64.8651 24.7879 64.8104 24.7123C64.7558 24.6367 64.6859 24.5735 64.6052 24.5268C64.5245 24.4801 64.4349 24.4509 64.3421 24.4411C64.2494 24.4313 64.1556 24.4412 64.067 24.4701C63.6858 24.5796 63.4179 24.9875 63.2835 25.3364C63.1491 25.6853 63.173 26.3933 63.1868 26.6373C62.9917 26.6677 62.7956 26.698 62.605 26.7183C62.4743 26.7293 62.349 26.7496 62.2174 26.7533L61.8307 26.7726C61.584 26.7726 61.329 26.78 61.0887 26.7772C60.9211 26.7772 60.7618 26.7726 60.6017 26.7689C60.7922 26.7293 61.1642 26.6437 61.1936 26.6327C61.6039 26.4712 61.9659 26.2071 62.245 25.8658C62.2916 25.8497 62.3366 25.8293 62.3794 25.805C62.4618 25.7613 62.5341 25.7008 62.5915 25.6273C62.649 25.5539 62.6903 25.4692 62.7129 25.3787C62.7355 25.2882 62.7388 25.194 62.7226 25.1022C62.7064 25.0104 62.671 24.923 62.6188 24.8457C62.292 24.39 61.2793 24.4047 60.8024 24.5585C60.7747 24.5677 60.4801 24.6993 60.2951 24.7859C60.3963 24.7186 60.4949 24.6542 60.5971 24.5833C60.8014 24.4452 61.0012 24.3016 61.2166 24.1478L61.5241 23.9112C61.6282 23.8348 61.7285 23.7409 61.8326 23.6544C62.0692 23.4509 62.2984 23.2318 62.5249 23.0099C62.6464 23.1885 63.0865 23.8164 63.406 24.0143C63.7254 24.2123 64.1857 24.3679 64.554 24.2289C64.9223 24.0898 65.1193 23.6765 64.9361 23.3174C64.682 22.8166 63.6794 22.6785 63.1868 22.7567C63.1565 22.7623 62.8075 22.8589 62.617 22.9151C62.7523 22.7788 62.8876 22.6435 63.0193 22.5008C63.4013 22.0902 63.7742 21.6621 64.1489 21.2368C64.2631 21.1069 64.3791 20.978 64.4942 20.8492C64.5374 20.9136 65.0465 21.6713 65.4019 21.8932C65.7205 22.0902 66.1808 22.2522 66.55 22.1095C66.638 22.0789 66.7187 22.0302 66.7867 21.9663C66.8546 21.9025 66.9084 21.8251 66.9444 21.7391C66.9805 21.6531 66.998 21.5605 66.9959 21.4673C66.9937 21.374 66.972 21.2823 66.932 21.1981C66.6779 20.6982 65.6753 20.5592 65.1828 20.6383C65.146 20.6448 64.6442 20.7838 64.5181 20.8225C64.7722 20.538 65.0291 20.2572 65.2924 19.9939C65.6462 19.6322 66.0233 19.2939 66.4211 18.9812C66.4413 19.0115 66.967 19.8042 67.3334 20.0316C67.652 20.2286 68.1114 20.3916 68.4815 20.2489C68.5696 20.2182 68.6503 20.1693 68.7182 20.1054C68.7862 20.0415 68.8399 19.964 68.876 19.8779C68.912 19.7919 68.9295 19.6992 68.9274 19.6059C68.9253 19.5126 68.9035 19.4208 68.8636 19.3365C68.6095 18.8366 67.6069 18.6985 67.1143 18.7768C67.0757 18.7832 66.5362 18.9342 66.4404 18.9683C66.4634 18.9499 66.4855 18.9287 66.5085 18.9112C66.9168 18.6088 67.3508 18.3429 67.8057 18.1167C68.0552 17.9896 68.301 17.881 68.5422 17.7806C68.6251 17.939 69.0109 18.6553 69.3184 18.8965C69.6258 19.1377 70.0549 19.3393 70.4351 19.238C70.5261 19.2173 70.6116 19.1776 70.6862 19.1216C70.7608 19.0656 70.8228 18.9945 70.8682 18.9129C70.9135 18.8314 70.9412 18.7412 70.9493 18.6483C70.9575 18.5554 70.9461 18.4617 70.9157 18.3735C70.7177 17.8488 69.7363 17.6011 69.2355 17.625C69.2088 17.625 68.9335 17.6702 68.7337 17.7051C68.8433 17.6619 68.9556 17.6131 69.0615 17.5753C69.4583 17.4262 69.8312 17.3139 70.1663 17.2163C70.3504 17.1629 70.5272 17.1187 70.6874 17.0782C70.8494 17.1905 71.5077 17.6361 71.8842 17.7061C72.2607 17.776 72.7395 17.7613 73.0332 17.4952C73.3269 17.2292 73.3618 16.7771 73.0608 16.5074C72.6428 16.1318 71.6577 16.3647 71.225 16.616C71.1873 16.6381 70.6413 17.046 70.6496 17.0524L70.6597 17.0588C70.5032 17.0948 70.3366 17.1343 70.1561 17.1813C69.8219 17.2734 69.4454 17.3756 69.0431 17.5173C68.6083 17.6647 68.1825 17.8375 67.768 18.0347C67.3024 18.2535 66.8572 18.5133 66.4376 18.8108L66.4229 18.8228C66.5214 18.6912 66.7847 18.3137 66.8013 18.2824C67.0397 17.8414 67.2414 16.8499 66.8538 16.4411C66.7874 16.3756 66.708 16.3248 66.6207 16.292C66.5335 16.2591 66.4403 16.245 66.3472 16.2506C66.2541 16.2562 66.1632 16.2812 66.0805 16.3242C65.9977 16.3672 65.9249 16.4271 65.8668 16.5C65.61 16.8011 65.6109 17.289 65.6919 17.6545C65.784 18.067 66.3364 18.7989 66.376 18.8569C65.9566 19.1704 65.5587 19.5115 65.1846 19.8779C64.9655 20.0905 64.7519 20.3106 64.5402 20.5343C64.6212 20.4183 64.693 20.3133 64.7022 20.2977C64.9407 19.8567 65.1414 18.8642 64.7538 18.4564C64.6874 18.3909 64.608 18.3401 64.5207 18.3073C64.4335 18.2744 64.3403 18.2603 64.2472 18.2659C64.1541 18.2715 64.0632 18.2965 63.9805 18.3395C63.8977 18.3825 63.8249 18.4424 63.7668 18.5153C63.51 18.8164 63.5109 19.3043 63.5919 19.6698C63.6729 20.0353 64.1296 20.6742 64.252 20.8409L64.0016 21.1051C63.6177 21.5231 63.2356 21.941 62.849 22.3397C62.7136 22.4805 62.5728 22.6159 62.4347 22.7485C62.5074 22.6444 62.5672 22.557 62.5746 22.5422C62.8131 22.1012 63.0147 21.1097 62.6271 20.7009C62.5607 20.6354 62.4813 20.5846 62.394 20.5518C62.3068 20.519 62.2136 20.5049 62.1205 20.5104C62.0274 20.516 61.9365 20.5411 61.8538 20.584C61.771 20.627 61.6982 20.6869 61.6401 20.7599C61.3833 21.0609 61.3842 21.5498 61.4652 21.9153C61.5462 22.2808 61.9587 22.8571 62.1032 23.055C61.9568 23.1885 61.8114 23.322 61.6632 23.4445C61.56 23.5255 61.4671 23.6111 61.3593 23.6866L61.0463 23.9158C60.8429 24.0549 60.633 24.1994 60.4304 24.3292C60.2905 24.4213 60.1542 24.506 60.0198 24.5916C60.157 24.4535 60.4203 24.1764 60.4396 24.1506C60.7416 23.751 61.0914 22.8019 60.7692 22.3415C60.7136 22.2667 60.6429 22.2044 60.5616 22.1587C60.4804 22.113 60.3904 22.0849 60.2976 22.0762C60.2048 22.0676 60.1112 22.0785 60.0229 22.1083C59.9346 22.1382 59.8536 22.1863 59.785 22.2495C59.4849 22.5082 59.4168 22.9906 59.4361 23.3644C59.4637 23.7759 59.8753 24.5529 59.9268 24.6533C59.7003 24.7941 59.4794 24.9295 59.2695 25.0538Z" fill="#BC9434"/>
<path d="M71.5509 25.7258C71.5509 25.736 72.2266 25.6614 72.269 25.6522C72.7569 25.5408 73.6361 25.039 73.6859 24.4802C73.7218 24.0779 73.3793 23.7722 72.9917 23.7768C72.6041 23.7814 72.2294 24.1036 72.0075 24.4056C71.7488 24.7591 71.5509 25.7249 71.5509 25.7258Z" fill="#BC9434"/>
<path d="M33.1219 8.59555L31.5547 9.82263L33.4566 12.2517L35.0238 11.0246L33.1219 8.59555Z" fill="#BC9434" stroke="#BC9434" stroke-width="0.376003" stroke-linejoin="round"/>
<path d="M32.9965 7.30486L30.3318 9.39124L31.6814 11.115L34.3461 9.02864L32.9965 7.30486Z" fill="#BC9434" stroke="#BC9434" stroke-width="0.376003" stroke-linejoin="round"/>
<path d="M30.907 9.02252L31.8967 10.2866" stroke="#BC9434" stroke-width="0.376003" stroke-linejoin="round"/>
<path d="M31.8092 8.31638L32.7989 9.57951" stroke="#BC9434" stroke-width="0.376003" stroke-linejoin="round"/>
<path d="M31.5634 8.99399L32.5531 10.2571" stroke="#BC9434" stroke-width="0.376003" stroke-linejoin="round"/>
<path d="M53.4542 11.0264L55.0214 12.2535L56.9233 9.82438L55.3561 8.5973L53.4542 11.0264Z" fill="#BC9434" stroke="#BC9434" stroke-width="0.376003" stroke-linejoin="round"/>
<path d="M54.1334 9.02819L56.7981 11.1146L58.1478 9.39078L55.4831 7.3044L54.1334 9.02819Z" fill="#BC9434" stroke="#BC9434" stroke-width="0.376003" stroke-linejoin="round"/>
<path d="M57.5736 9.02252L56.5839 10.2866" stroke="#BC9434" stroke-width="0.376003" stroke-linejoin="round"/>
<path d="M56.6714 8.31638L55.6817 9.57951" stroke="#BC9434" stroke-width="0.376003" stroke-linejoin="round"/>
<path d="M56.9172 8.99399L55.9275 10.2571" stroke="#BC9434" stroke-width="0.376003" stroke-linejoin="round"/>
<path d="M45.734 4.32812H42.5063V7.56052H45.734V4.32812Z" fill="#BC9434" stroke="#BC9434" stroke-width="0.376003" stroke-linejoin="round"/>
<path d="M46.4559 2.47394H41.7845V5.70633H46.4559V2.47394Z" fill="#BC9434" stroke="#BC9434" stroke-width="0.376003" stroke-linejoin="round"/>
<path d="M42.2043 2.46289V5.15671" stroke="#BC9434" stroke-width="0.376003" stroke-linejoin="round"/>
<path d="M42.5891 5.27732V3.83374" stroke="#BC9434" stroke-width="0.376003" stroke-linejoin="round"/>
<path d="M42.9979 2.53561V4.57945" stroke="#BC9434" stroke-width="0.376003" stroke-linejoin="round"/>
<path d="M43.4066 3.52164V5.39792" stroke="#BC9434" stroke-width="0.376003" stroke-linejoin="round"/>
<path d="M44.0327 2.55957V4.67614" stroke="#BC9434" stroke-width="0.376003" stroke-linejoin="round"/>
<path d="M56.0595 35.8198C62.6537 29.2255 62.6537 18.5342 56.0595 11.9399C49.4652 5.34568 38.7738 5.34568 32.1796 11.9399C25.5854 18.5342 25.5854 29.2255 32.1796 35.8198C38.7738 42.414 49.4652 42.414 56.0595 35.8198Z" fill="#BC9434" stroke="#BC9434" stroke-width="0.376003" stroke-linejoin="round"/>
<path d="M54.6598 34.4201C60.4811 28.5989 60.4811 19.1608 54.6598 13.3396C48.8386 7.51833 39.4005 7.51833 33.5793 13.3396C27.758 19.1608 27.758 28.5989 33.5793 34.4201C39.4005 40.2414 48.8386 40.2414 54.6598 34.4201Z" fill="white" stroke="#BC9434" stroke-width="0.376003" stroke-linejoin="round"/>
<path d="M53.8337 33.594C59.1987 28.229 59.1987 19.5307 53.8337 14.1657C48.4687 8.80069 39.7704 8.80069 34.4054 14.1657C29.0404 19.5307 29.0404 28.229 34.4054 33.594C39.7704 38.959 48.4687 38.959 53.8337 33.594Z" fill="white" stroke="#BC9434" stroke-width="0.376003" stroke-linejoin="round"/>
<path d="M44.1202 10.142V12.0045" stroke="#BC9434" stroke-width="0.376003" stroke-linejoin="round"/>
<path d="M44.1202 35.7416V37.604" stroke="#BC9434" stroke-width="0.376003" stroke-linejoin="round"/>
<path d="M57.8507 23.8735H55.9882" stroke="#BC9434" stroke-width="0.376003" stroke-linejoin="round"/>
<path d="M32.2512 23.8735H30.3887" stroke="#BC9434" stroke-width="0.376003" stroke-linejoin="round"/>
<path d="M53.8293 14.1643L52.5119 15.4809" stroke="#BC9434" stroke-width="0.376003" stroke-linejoin="round"/>
<path d="M35.7275 32.2652L34.411 33.5826" stroke="#BC9434" stroke-width="0.376003" stroke-linejoin="round"/>
<path d="M34.411 14.1643L35.7275 15.4809" stroke="#BC9434" stroke-width="0.376003" stroke-linejoin="round"/>
<path d="M52.5119 32.2652L53.8293 33.5826" stroke="#BC9434" stroke-width="0.376003" stroke-linejoin="round"/>
<path d="M47.5091 22.5652L47.7236 23.3837L33.6837 26.7698L33.6192 26.524L47.5091 22.5652Z" fill="#BC9434" stroke="#BC9434" stroke-width="0.376003" stroke-linejoin="round"/>
<path d="M44.6587 23.88C44.6587 23.7734 44.6271 23.6693 44.568 23.5807C44.5088 23.4922 44.4247 23.4231 44.3263 23.3824C44.2278 23.3416 44.1196 23.3309 44.0151 23.3517C43.9106 23.3725 43.8146 23.4238 43.7393 23.4991C43.664 23.5744 43.6127 23.6704 43.5919 23.7749C43.5711 23.8794 43.5818 23.9876 43.6226 24.0861C43.6633 24.1845 43.7324 24.2686 43.8209 24.3278C43.9095 24.3869 44.0136 24.4185 44.1202 24.4185C44.1909 24.4185 44.2609 24.4046 44.3263 24.3775C44.3916 24.3505 44.451 24.3108 44.501 24.2608C44.551 24.2108 44.5907 24.1514 44.6177 24.0861C44.6448 24.0207 44.6587 23.9507 44.6587 23.88Z" fill="white" stroke="#BC9434" stroke-width="0.376003" stroke-linejoin="round"/>
<path d="M38.9471 34.0881L38.1047 33.5357C38.1047 33.5357 37.5827 34.0411 37.5523 34.0881C37.5219 34.135 36.0875 34.3063 35.8031 34.3063C35.5186 34.3063 35.3151 34.2391 35.281 34.3744C35.247 34.5097 35.6852 34.8117 36.3251 34.9802C36.5773 35.0465 36.9456 35.179 37.3083 35.3088L37.2512 35.4515C37.2512 35.4515 38.2105 35.8051 38.3625 35.8198C38.414 35.8263 38.4637 35.748 38.507 35.643C38.6571 35.5077 38.9471 34.0881 38.9471 34.0881Z" fill="#BC9434" stroke="#BC9434" stroke-width="0.376003" stroke-linejoin="round"/>
<path d="M53.2116 26.8831L53.4141 27.8663C53.4141 27.8663 54.1405 27.8755 54.2004 27.8663C54.2602 27.8571 55.3972 28.7437 55.597 28.9453C55.7968 29.1469 55.8953 29.3366 56.015 29.2648C56.1347 29.193 56.0361 28.67 55.701 28.0992C55.5685 27.8746 55.4 27.5211 55.2352 27.1731L55.376 27.1123C55.376 27.1123 54.9443 26.1852 54.8485 26.0665C54.8154 26.0259 54.7251 26.0462 54.6211 26.0895C54.4149 26.083 53.2116 26.8831 53.2116 26.8831Z" fill="#BC9434" stroke="#BC9434" stroke-width="0.376003" stroke-linejoin="round"/>
<path d="M43.3791 24.2528C43.3791 24.2528 43.1093 24.4213 43.1434 24.5225C43.1774 24.6238 43.3956 24.7914 43.3956 24.7914C43.3956 24.7914 39.8364 27.8599 39.7692 28.0956C39.702 28.3313 37.5504 33.532 37.5504 33.532L39.2002 34.3606L41.4024 29.1258L45.1467 26.7321C45.1467 26.7321 47.8534 30.5822 48.1232 30.5491C48.3929 30.516 53.9306 27.9363 53.9306 27.9363L53.3902 26.6695L48.7115 28.2714L47.2504 24.9939C47.2504 24.9939 47.6039 24.3872 47.3857 23.7971C47.1675 23.2069 46.5268 22.2982 46.5268 22.2982L43.3791 24.2528Z" fill="#BC9434" stroke="#BC9434" stroke-width="0.376003" stroke-linejoin="round"/>
<path d="M45.1458 26.7275C45.1458 26.7275 46.9392 25.654 47.0911 25.5021" stroke="#999999" stroke-width="0.376003" stroke-linejoin="round"/>
<path d="M44.1671 24.2362C44.3741 24.0517 44.5944 23.8828 44.8263 23.7308C45.1798 23.5292 45.9882 23.5623 45.9882 23.5623" stroke="#999999" stroke-width="0.376003" stroke-linejoin="round"/>
<path d="M43.5973 24.7407C43.5973 24.7407 43.7169 24.6303 43.8863 24.4802" stroke="#999999" stroke-width="0.376003" stroke-linejoin="round"/>
<path d="M46.3749 23.3772C46.3749 23.3772 45.7019 23.2925 45.178 23.4279" stroke="#999999" stroke-width="0.376003" stroke-linejoin="round"/>
<path d="M45.5665 26.559C45.5665 26.559 46.9641 26.8122 47.4189 26.7781" stroke="#999999" stroke-width="0.376003" stroke-linejoin="round"/>
<path d="M47.266 27.6408C47.3747 27.673 47.4824 27.6997 47.5873 27.7209" stroke="#999999" stroke-width="0.376003" stroke-linejoin="round"/>
<path d="M45.5499 26.8629C46.0027 27.1301 46.4777 27.3577 46.9696 27.5432" stroke="#999999" stroke-width="0.376003" stroke-linejoin="round"/>
<path d="M43.1084 23.9499L43.3781 24.2528L46.5268 22.2992L46.3242 22.0975L43.1084 23.9499Z" fill="#BC9434" stroke="#BC9434" stroke-width="0.376003" stroke-linejoin="round"/>
<path d="M47.6886 20.05L47.9777 20.4395L48.6847 20.1946L48.5402 19.8475L47.6886 20.05Z" fill="white" stroke="#BC9434" stroke-width="0.376003" stroke-linejoin="round"/>
<path d="M40.2488 17.2108C40.2488 17.2108 38.8485 17.231 38.1314 17.2108C37.4142 17.1905 35.4099 16.7909 35.2497 17.0911C35.0895 17.3912 35.4293 18.2115 36.4107 18.5319C37.3921 18.8523 39.5326 19.1524 39.5326 19.1524C39.5326 19.1524 40.4127 20.2572 40.9136 20.9136C41.4144 21.57 42.3341 23.0955 42.4142 23.2355C42.4943 23.3754 42.8543 24.2362 43.3349 24.0558C43.8154 23.8753 46.4365 22.255 46.4365 22.1344C46.4365 22.0138 46.4365 21.8582 46.3573 21.7542C46.2782 21.6501 45.3363 20.4938 45.1762 20.1891C45.016 19.8843 44.4396 18.4085 44.4396 18.4085L45.7 18.1084C45.7 18.1084 47.1813 19.749 47.4612 20.0095C47.7411 20.2701 47.9814 20.1697 47.9814 20.1697C47.9814 20.1697 48.6424 20.0491 48.6617 19.8493C48.6811 19.6496 46.4605 16.2468 46.2404 16.1272C46.0204 16.0075 44.5391 16.5074 43.9388 16.6068C43.3385 16.7062 42.6177 16.7467 41.7771 16.9475C41.274 17.0686 40.7635 17.1566 40.2488 17.2108Z" fill="white" stroke="#BC9434" stroke-width="0.376003" stroke-linejoin="round"/>
<path d="M44.4295 18.4122L42.428 18.972" stroke="#BC9434" stroke-width="0.376003" stroke-linejoin="round"/>
<path d="M43.5282 18.6718L42.8285 19.2325" stroke="#BC9434" stroke-width="0.376003" stroke-linejoin="round"/>
<path d="M37.8257 18.3698L37.5247 18.2318" stroke="#BC9434" stroke-width="0.376003" stroke-linejoin="round"/>
<path d="M38.1249 18.1922L39.5261 19.1524L38.0439 18.4711" stroke="#BC9434" stroke-width="0.376003" stroke-linejoin="round"/>
<path d="M42.8976 21.2819C43.6018 21.4282 44.8309 21.6437 45.8676 21.6207" stroke="#BC9434" stroke-width="0.376003" stroke-linejoin="round"/>
<path d="M42.3203 21.1511C42.3203 21.1511 42.4409 21.1815 42.6462 21.2275" stroke="#BC9434" stroke-width="0.376003" stroke-linejoin="round"/>
<path d="M44.494 21.3297C44.494 21.3297 45.3281 21.5028 45.8851 21.5028" stroke="#BC9434" stroke-width="0.376003" stroke-linejoin="round"/>
<path d="M40.2231 18.2677L40.526 19.2813L40.92 18.2373L40.2231 18.2677Z" fill="#BC9434" stroke="#BC9434" stroke-width="0.376003" stroke-linejoin="round"/>
<path d="M40.3142 17.5035L39.9146 17.9436L40.6033 18.4951L40.989 17.8064L40.3142 17.5035Z" fill="white" stroke="#BC9434" stroke-width="0.376003" stroke-linejoin="round"/>
<path d="M39.9146 17.9436L40.108 18.7565L40.3833 18.3155L39.9146 17.9436Z" fill="white" stroke="#BC9434" stroke-width="0.376003" stroke-linejoin="round"/>
<path d="M38.634 14.3908C38.634 14.3908 38.3578 15.0657 38.3726 15.2443C38.3873 15.4229 38.5245 15.5333 38.5107 15.7405C38.4969 15.9476 38.0697 16.3325 38.1664 16.4291C38.263 16.5258 38.6202 16.6768 38.6202 16.6768C38.6202 16.6768 39.006 17.4759 39.1441 17.5054C39.2822 17.5348 40.0251 17.161 40.0251 17.161L40.6033 18.496L41.7468 16.8029L41.361 16.0452C41.361 16.0452 41.6915 15.1918 41.3748 14.4893C41.0581 13.7869 40.0528 13.7454 39.5703 13.8283C39.0879 13.9112 38.7307 14.1155 38.634 14.3908Z" fill="white" stroke="#BC9434" stroke-width="0.376003" stroke-miterlimit="10"/>
<path d="M39.5575 14.2408C39.4455 14.217 39.3296 14.2183 39.2182 14.2445C39.1068 14.2708 39.0026 14.3214 38.913 14.3927C38.5696 14.6403 38.2796 14.9156 38.1424 14.6689C38.0052 14.4221 38.4315 14.0078 38.4315 14.0078C38.4315 14.0078 38.0872 13.9112 38.2253 13.5125C38.3634 13.1139 38.8697 13.0301 38.8697 13.1682C38.8697 13.3063 38.8283 13.4159 39.2141 13.2234C39.5998 13.031 39.806 12.9749 39.8889 13.1958C39.9717 13.4168 40.4671 13.2879 41.0314 13.6083C41.5958 13.9287 41.7339 14.1321 41.6096 14.8484C41.4853 15.5646 41.4586 15.908 41.3619 16.0452C41.2653 16.1824 40.9209 16.2238 40.77 16.1695C40.619 16.1152 40.7009 15.9624 40.7009 15.9624C40.7009 15.9624 41.1005 15.5628 40.9209 15.2461C40.7414 14.9294 40.4809 15.0675 40.398 15.2461C40.3152 15.4247 40.3566 15.5766 40.2323 15.5766C40.108 15.5766 39.9984 15.4845 39.9708 15.2875C39.9432 15.0905 39.8475 14.9193 39.7646 14.888C39.6817 14.8567 39.4755 15.0399 39.4884 14.7232C39.4932 14.5405 39.5612 14.3651 39.6808 14.2269L39.5575 14.2408Z" fill="#BC9434" stroke="#BC9434" stroke-width="0.376003" stroke-miterlimit="10"/>
<path d="M38.635 15.6024C38.6314 15.5147 38.6602 15.4287 38.7159 15.3608C38.7715 15.2929 38.8502 15.2478 38.9369 15.2341" stroke="#BC9434" stroke-width="0.376003" stroke-miterlimit="10"/>
<path d="M38.96 15.7386C38.9867 15.8132 38.9784 15.885 38.9425 15.8979C38.9066 15.9108 38.8568 15.8592 38.8301 15.7837C38.8034 15.7083 38.8117 15.6374 38.8476 15.6245C38.8835 15.6116 38.9342 15.6631 38.96 15.7386Z" fill="#BC9434"/>
<path d="M41.7191 16.3601L40.5214 17.8884L40.7414 18.7013L42.1463 16.7458L41.7191 16.3601Z" fill="white" stroke="#BC9434" stroke-width="0.376003" stroke-linejoin="round"/>
<path d="M40.525 19.2813C40.5459 19.3504 40.585 19.4126 40.6384 19.4612C40.6917 19.5098 40.7572 19.5431 40.8279 19.5575C41.0701 19.6026 41.4936 19.4212 41.7053 18.8762C41.9171 18.3312 42.3562 16.8333 42.6131 16.4696C42.8699 16.106 43.7178 16.0922 44.157 16.1216C44.5961 16.1511 44.8981 15.7285 45.3069 15.5315C45.5463 15.4151 45.8011 15.3336 46.0637 15.2894L46.5792 14.2407L45.5048 14.2104C45.5048 14.2104 44.4452 14.7103 44.1726 15.0279C43.9001 15.3455 43.704 15.3041 43.1286 15.421C42.5532 15.5379 42.2365 15.7847 42.0091 16.4807C41.7817 17.1767 41.4798 18.9324 41.1465 19.1745C41.0613 19.2451 40.9591 19.2921 40.85 19.3109C40.741 19.3296 40.6289 19.3194 40.525 19.2813Z" fill="#BC9434" stroke="#BC9434" stroke-width="0.376003" stroke-linejoin="round"/>
<path d="M36.8047 18.1406C36.929 18.2704 36.9474 18.4545 36.8452 18.554C36.743 18.6534 36.558 18.6285 36.4337 18.4997C36.3094 18.3708 36.291 18.1857 36.3932 18.0863C36.4954 17.9869 36.6795 18.0154 36.8047 18.1406Z" fill="white" stroke="#BC9434" stroke-width="0.376003" stroke-linejoin="round"/>
<path d="M36.7062 18.3919L36.5064 18.1802C36.5064 18.1802 36.0958 17.1104 35.548 16.8241C35.0002 16.5378 34.341 16.9732 34.2039 17.3838C34.0667 17.7944 34.5528 18.4794 35.0628 18.6912C35.4724 18.8446 35.8928 18.9677 36.3204 19.0594C36.3204 19.0594 36.557 18.5043 36.7062 18.3919Z" fill="white" stroke="#BC9434" stroke-width="0.376003" stroke-linejoin="round"/>
<path d="M35.9964 18.9646L36.0176 18.9922C36.1971 19.0373 36.3204 19.064 36.3204 19.064C36.3204 19.064 36.557 18.5043 36.7062 18.392L36.5064 18.1802C36.5064 18.1802 35.9338 18.2796 35.9964 18.9646Z" fill="#BC9434" stroke="#BC9434" stroke-width="0.376003" stroke-linejoin="round"/>
<path d="M37.9629 20.0473C38.0354 20.1515 38.1191 20.2475 38.2124 20.3336C38.3118 20.4091 38.3486 20.4956 38.2243 20.4837C38.0739 20.4801 37.9309 20.4172 37.8266 20.3087C37.7014 20.1725 37.6149 20.0602 37.6149 20.0602L37.9629 20.0473Z" fill="white" stroke="#BC9434" stroke-width="0.376003" stroke-linejoin="round"/>
<path d="M38.0255 19.6726C38.0255 19.6726 38.1995 19.9589 38.1378 20.0335C38.0761 20.108 37.5026 20.1329 37.4151 20.108C37.3276 20.0832 37.3902 19.9709 37.3902 19.9709L38.0255 19.6726Z" fill="white" stroke="#BC9434" stroke-width="0.376003" stroke-linejoin="round"/>
<path d="M38.0126 19.3384C38.0126 19.3384 38.1498 19.5501 38.1249 19.6367C38.1001 19.7232 37.5155 19.9856 37.3884 19.9727C37.2614 19.9598 37.277 19.8613 37.277 19.8613L38.0126 19.3384Z" fill="white" stroke="#BC9434" stroke-width="0.376003" stroke-linejoin="round"/>
<path d="M37.7769 19.0889C37.7769 19.0889 38.0006 19.064 38.0255 19.2261C38.0504 19.3881 37.9132 19.4378 37.8266 19.5124C37.7401 19.587 37.3663 19.8613 37.2789 19.8613C37.1914 19.8613 37.0294 19.6118 37.0294 19.6118L37.7769 19.0889Z" fill="white" stroke="#BC9434" stroke-width="0.376003" stroke-linejoin="round"/>
<path d="M36.7062 18.392C36.7062 18.392 37.3157 18.6166 37.602 18.6912C37.8883 18.7658 37.9012 19.0024 37.7769 19.0889C37.6526 19.1754 37.266 19.6496 37.1536 19.6744C37.0413 19.6993 36.8774 19.575 36.8774 19.575C36.8774 19.575 36.5285 19.4001 36.4788 19.2638C36.4485 19.1814 36.3919 19.1112 36.3177 19.064C36.3177 19.064 36.2827 18.554 36.7062 18.392Z" fill="white" stroke="#BC9434" stroke-width="0.376003" stroke-linejoin="round"/>
<path d="M36.8802 19.575C36.8802 19.575 36.7808 19.3384 36.8682 19.2758C36.9557 19.2132 37.092 19.3503 37.092 19.3503C37.1118 19.2782 37.1456 19.2107 37.1914 19.1515" stroke="#BC9434" stroke-width="0.376003" stroke-linejoin="round"/>
<path d="M47.9823 20.4395C48.0152 20.618 48.0358 20.7986 48.044 20.9799C48.0338 21.106 47.8138 21.6308 47.8028 21.6621C47.7917 21.6934 47.8764 21.8195 47.9077 21.861C47.939 21.9024 48.0863 21.8821 48.2014 21.976C48.3165 22.07 48.4527 22.302 48.6212 22.2522C48.7897 22.2025 48.8974 21.976 48.8974 21.976C48.8974 21.976 49.285 21.7459 49.2951 21.6308C49.3004 21.4889 49.2827 21.3472 49.2427 21.211C49.2114 21.1189 48.6903 20.1983 48.6903 20.1983L47.9823 20.4395Z" fill="white" stroke="#BC9434" stroke-width="0.376003" stroke-linejoin="round"/>
<path d="M48.0918 21.5673C48.0918 21.5673 48.2907 21.5986 48.3754 21.9033" stroke="#BC9434" stroke-width="0.376003" stroke-linejoin="round"/>
<path d="M48.1968 21.7247L47.7457 21.9558L48.1655 22.742" stroke="#BC9434" stroke-width="1.12801" stroke-linecap="round" stroke-linejoin="round"/>
<path d="M49.2979 21.3472L49.4231 21.2947L49.8429 22.1334" stroke="#BC9434" stroke-width="1.12801" stroke-linejoin="round"/>
<path d="M51.3964 21.2918L46.8843 23.3055C46.7083 23.384 46.6293 23.5904 46.7078 23.7663L47.9186 26.4794C47.9971 26.6553 48.2034 26.7343 48.3794 26.6558L52.8916 24.6421C53.0676 24.5636 53.1466 24.3573 53.068 24.1813L51.8573 21.4683C51.7787 21.2923 51.5724 21.2133 51.3964 21.2918Z" fill="#BC9434" stroke="#BC9434" stroke-width="0.376003" stroke-linejoin="round"/>
</svg>
