<svg width="322" height="321" viewBox="0 0 322 321" fill="none" xmlns="http://www.w3.org/2000/svg">
<path d="M308.611 9.04501V66.9814H225.399L222.4 9.44576L308.611 9.04501Z" fill="#E0E0E0"/>
<path d="M222.4 9.44575V66.8597H305.612V9.44575L222.4 9.44575Z" fill="white"/>
<path d="M306.013 67.2533H222.007V9.05215H306.013V67.2533ZM222.794 66.4662H305.219V9.83933H222.794V66.4662Z" fill="#E0E0E0"/>
<path d="M296.603 16.5804H231.417V59.725H296.603V16.5804Z" fill="white"/>
<path d="M296.603 16.5805H296.281H295.358H291.78L278.347 16.6305L231.424 16.7236L231.61 16.5375C231.61 29.7192 231.61 44.3249 231.61 59.6749L231.41 59.4674L296.596 59.5104L296.431 59.6749C296.467 46.5434 296.495 35.7805 296.517 28.2808C296.517 24.5381 296.553 21.6112 296.56 19.6004C296.56 18.6128 296.56 17.8543 296.56 17.3247C296.56 16.8023 296.56 16.5304 296.56 16.5304C296.56 16.5304 296.56 16.7808 296.56 17.2889C296.56 17.797 296.56 18.5627 296.56 19.536C296.56 21.5397 296.56 24.4522 296.603 28.1806C296.603 35.7018 296.653 46.5004 296.689 59.6678V59.8324H296.524L231.338 59.8753H231.131V59.6678C231.131 44.3178 231.131 29.712 231.131 16.5304V16.3443H231.324L278.505 16.4874L291.894 16.5375H295.436H296.338L296.603 16.5805Z" fill="#E0E0E0"/>
<path d="M222.4 9.2883C222.914 9.53578 223.394 9.84585 223.832 10.2114C224.683 10.8269 225.843 11.6999 227.095 12.7018C228.347 13.7037 229.449 14.6483 230.222 15.3639C230.671 15.7164 231.073 16.1253 231.417 16.5804C229.831 15.4654 228.303 14.2712 226.837 13.0024C225.283 11.8568 223.802 10.6164 222.4 9.2883Z" fill="#E0E0E0"/>
<path d="M305.62 9.44574C304.249 10.7895 302.785 12.0354 301.24 13.1741C299.776 14.4166 298.226 15.5548 296.603 16.5804C297.972 15.2347 299.435 13.9888 300.982 12.8521C302.447 11.6096 303.996 10.4714 305.62 9.44574Z" fill="#E0E0E0"/>
<path d="M305.548 66.8669L296.245 59.3458L305.548 66.8669Z" fill="white"/>
<path d="M296.274 59.3458C297.941 60.4297 299.533 61.6252 301.04 62.9239C302.631 64.1261 304.137 65.4364 305.548 66.8454C303.881 65.7615 302.288 64.566 300.782 63.2674C299.191 62.0651 297.685 60.7548 296.274 59.3458Z" fill="#E0E0E0"/>
<path d="M222.4 66.8598C223.756 65.5269 225.205 64.2929 226.737 63.1672C228.182 61.9351 229.715 60.8109 231.324 59.8038C229.969 61.1351 228.52 62.3668 226.988 63.4892C225.542 64.7221 224.009 65.8486 222.4 66.8598Z" fill="#E0E0E0"/>
<path d="M244.649 30.0198V44.4681H285.668V30.0198H244.649Z" fill="#E0E0E0"/>
<path d="M248.22 319.544H322V105.396H248.22L248.22 319.544Z" fill="#3A3E47"/>
<path d="M208.618 319.544H289.396V105.396H208.618L208.618 319.544Z" fill="#F5F5F5"/>
<path d="M258.21 269.573H236.627C236.219 269.573 235.827 269.411 235.539 269.122C235.25 268.834 235.088 268.442 235.088 268.034V266.753H259.748V268.034C259.748 268.442 259.586 268.834 259.298 269.122C259.009 269.411 258.618 269.573 258.21 269.573Z" fill="#E0E0E0"/>
<path d="M212.188 266.753C212.188 266.753 212.188 267.011 212.188 267.526C212.188 268.041 212.188 268.821 212.188 269.823C212.188 271.863 212.189 274.833 212.146 278.661C212.146 286.354 212.095 297.417 212.06 310.964V311.129H212.224L284.208 311.172H284.452V310.964C284.452 295.321 284.452 280.4 284.452 266.818V266.632H284.23L232.29 266.674L217.47 266.71H213.541H212.532H212.203H212.561H213.584H217.548L232.419 266.775L284.23 266.918L284.037 266.725C284.037 280.321 284.037 295.228 284.037 310.871L284.244 310.671H284.201L212.217 310.714L212.375 310.871C212.339 297.367 212.31 286.333 212.289 278.668C212.289 274.833 212.289 271.841 212.253 269.795C212.253 268.778 212.253 268.006 212.253 267.469C212.253 266.932 212.188 266.753 212.188 266.753Z" fill="#E0E0E0"/>
<path d="M236.062 283.348H257.494V277.559H236.062V283.348Z" fill="#E0E0E0"/>
<path d="M259.19 218.048H237.614C237.206 218.048 236.815 217.886 236.526 217.598C236.238 217.309 236.076 216.918 236.076 216.51V215.229H260.729V216.51C260.729 216.918 260.567 217.309 260.278 217.598C259.99 217.886 259.598 218.048 259.19 218.048Z" fill="#E0E0E0"/>
<path d="M212.389 215.222C212.389 215.222 212.389 215.479 212.389 215.994C212.389 216.51 212.389 217.297 212.389 218.292C212.389 220.331 212.389 223.301 212.346 227.129C212.346 234.822 212.296 245.886 212.26 259.44V259.597H212.425L284.409 259.64H284.652V259.44C284.652 243.789 284.652 228.868 284.652 215.293V215.1H284.466L232.526 215.143L217.706 215.186H213.777H212.768H212.439H212.797H213.82H217.785L232.655 215.257L284.466 215.393L284.273 215.207C284.273 228.804 284.273 243.703 284.273 259.354L284.48 259.146H284.437L212.453 259.189L212.611 259.354C212.575 245.843 212.546 234.815 212.525 227.151C212.525 223.315 212.525 220.324 212.525 218.277C212.525 217.268 212.525 216.488 212.525 215.952C212.525 215.415 212.389 215.222 212.389 215.222Z" fill="#E0E0E0"/>
<path d="M237.679 231.473H259.112V225.684H237.679V231.473Z" fill="#E0E0E0"/>
<path d="M258.253 114.062H236.67C236.262 114.062 235.87 113.9 235.582 113.611C235.293 113.323 235.131 112.931 235.131 112.523V111.242H259.791V112.523C259.791 112.725 259.752 112.925 259.674 113.112C259.597 113.299 259.484 113.468 259.341 113.611C259.198 113.754 259.028 113.867 258.842 113.945C258.655 114.022 258.455 114.062 258.253 114.062Z" fill="#E0E0E0"/>
<path d="M212.224 111.235C212.224 111.235 212.224 111.493 212.224 112.008C212.224 112.523 212.224 113.311 212.224 114.305C212.224 116.345 212.224 119.315 212.189 123.143C212.189 130.836 212.138 141.899 212.103 155.453V155.611H212.26L284.251 155.661H284.495V155.453C284.495 139.803 284.495 124.882 284.495 111.307V111.114H284.23L232.297 111.156L217.47 111.199H213.541H212.539H212.203C212.322 111.206 212.441 111.206 212.561 111.199H213.584H217.556L232.419 111.264L284.23 111.4L284.037 111.214C284.037 124.81 284.037 139.71 284.037 155.36L284.244 155.153L212.253 155.196L212.418 155.36C212.382 141.849 212.353 130.822 212.332 123.157C212.332 119.322 212.296 116.33 212.289 114.284C212.289 113.275 212.289 112.495 212.289 111.958C212.289 111.421 212.224 111.235 212.224 111.235Z" fill="#E0E0E0"/>
<path d="M237.128 126.449H258.561V120.66H237.128V126.449Z" fill="#E0E0E0"/>
<path d="M258.253 166.037H236.67C236.262 166.037 235.87 165.875 235.582 165.587C235.293 165.298 235.131 164.907 235.131 164.499V163.175H259.791V164.456C259.797 164.661 259.762 164.866 259.687 165.058C259.612 165.249 259.5 165.424 259.356 165.571C259.213 165.719 259.041 165.836 258.852 165.916C258.662 165.996 258.459 166.037 258.253 166.037Z" fill="#E0E0E0"/>
<path d="M212.224 163.189C212.224 163.189 212.224 163.447 212.224 163.962C212.224 164.477 212.224 165.257 212.224 166.259C212.224 168.299 212.224 171.268 212.189 175.097C212.189 182.79 212.138 193.853 212.103 207.4V207.557H212.26L284.251 207.6H284.495V207.393C284.495 191.749 284.495 176.829 284.495 163.246V163.06H284.23L232.297 163.103H217.47H213.541H212.539H212.203H212.561H213.584H217.556L232.419 163.168L284.23 163.311L284.037 163.117C284.037 176.714 284.037 191.621 284.037 207.264L284.244 207.064L212.253 207.106L212.418 207.264C212.382 193.76 212.353 182.725 212.332 175.061C212.332 171.225 212.296 168.234 212.289 166.187C212.289 165.171 212.289 164.398 212.289 163.862C212.289 163.325 212.224 163.189 212.224 163.189Z" fill="#E0E0E0"/>
<path d="M237.128 178.41H258.561V172.621H237.128V178.41Z" fill="#E0E0E0"/>
<path d="M95.0419 7.59946H17.6908V76.7997H95.0419V7.59946Z" fill="#FAFAFA"/>
<path d="M95.0419 76.7997C95.0419 76.7997 95.0419 76.356 95.0419 75.5116C95.0419 74.6671 95.0419 73.422 95.0419 71.8047C95.0419 68.5558 95.0419 63.8112 94.9918 57.7571C94.9918 45.6703 94.9417 28.4168 94.9059 7.59945L95.0777 7.7712H17.7337L17.9413 7.56367C17.9413 32.7391 17.9413 56.426 17.9413 76.7639L17.7552 76.5778L73.7022 76.6709L89.4816 76.721H93.6608H94.7342H95.1063H94.7557H93.6965H89.5603L73.8167 76.7639L17.7552 76.8569H17.5763V76.678C17.5763 56.3402 17.5763 32.6532 17.5763 7.47779V7.27026H17.791H95.1349H95.3138V7.44917C95.2709 28.288 95.2423 45.5987 95.2208 57.7213C95.2208 63.754 95.185 68.4556 95.1779 71.726C95.1779 73.3289 95.1779 74.5884 95.1779 75.4042C95.1779 76.22 95.0419 76.7997 95.0419 76.7997Z" fill="#E0E0E0"/>
<path d="M47.3603 19.8938C47.3603 20.0083 43.2884 20.1013 38.2648 20.1013C33.2412 20.1013 29.1765 20.0083 29.1765 19.8938C29.1765 19.7793 33.2412 19.6862 38.2648 19.6862C43.2884 19.6862 47.3603 19.7793 47.3603 19.8938Z" fill="#E0E0E0"/>
<path d="M80.1284 25.0748C80.1284 25.1893 68.9433 25.2824 55.1462 25.2824C41.3491 25.2824 30.1855 25.2037 30.1855 25.0748C30.1855 24.946 41.3706 24.8673 55.1677 24.8673C68.9648 24.8673 80.1284 24.9747 80.1284 25.0748Z" fill="#E0E0E0"/>
<path d="M32.5542 33.8912H29.2981V37.1473H32.5542V33.8912Z" fill="#E0E0E0"/>
<path d="M40.5762 33.8912H37.3202V37.1473H40.5762V33.8912Z" fill="#E0E0E0"/>
<path d="M48.7486 33.741H45.4925V36.997H48.7486V33.741Z" fill="#E0E0E0"/>
<path d="M56.6204 33.8912H53.3643V37.1473H56.6204V33.8912Z" fill="#E0E0E0"/>
<path d="M64.6425 33.8912H61.3864V37.1473H64.6425V33.8912Z" fill="#E0E0E0"/>
<path d="M72.6645 33.8912H69.4085V37.1473H72.6645V33.8912Z" fill="#E0E0E0"/>
<path d="M80.6866 33.8912H77.4306V37.1473H80.6866V33.8912Z" fill="#EBEBEB"/>
<path d="M32.5542 40.8184H29.2981V44.0745H32.5542V40.8184Z" fill="#EBEBEB"/>
<path d="M40.5762 40.8184H37.3202V44.0745H40.5762V40.8184Z" fill="#E0E0E0"/>
<path d="M48.5983 40.8184H45.3423V44.0745H48.5983V40.8184Z" fill="#EBEBEB"/>
<path d="M56.6204 40.8184H53.3643V44.0745H56.6204V40.8184Z" fill="#E0E0E0"/>
<path d="M64.6425 40.8184H61.3864V44.0745H64.6425V40.8184Z" fill="#E0E0E0"/>
<path d="M72.8077 40.6682H69.5516V43.9242H72.8077V40.6682Z" fill="#E0E0E0"/>
<path d="M80.6866 40.8184H77.4306V44.0745H80.6866V40.8184Z" fill="#E0E0E0"/>
<path d="M32.5542 47.7456H29.2981V51.0017H32.5542V47.7456Z" fill="#E0E0E0"/>
<path d="M40.7265 47.5953H37.4705V50.8514H40.7265V47.5953Z" fill="#E0E0E0"/>
<path d="M48.5983 47.7456H45.3423V51.0017H48.5983V47.7456Z" fill="#E0E0E0"/>
<path d="M56.6204 47.7456H53.3643V51.0017H56.6204V47.7456Z" fill="#EBEBEB"/>
<path d="M64.6425 47.7456H61.3864V51.0017H64.6425V47.7456Z" fill="#E0E0E0"/>
<path d="M72.6645 47.7456H69.4085V51.0017H72.6645V47.7456Z" fill="#E0E0E0"/>
<path d="M80.6866 47.7456H77.4306V51.0017H80.6866V47.7456Z" fill="#E0E0E0"/>
<path d="M32.5542 54.6728H29.2981V57.9289H32.5542V54.6728Z" fill="#E0E0E0"/>
<path d="M40.5762 54.6728H37.3202V57.9289H40.5762V54.6728Z" fill="#E0E0E0"/>
<path d="M48.5983 54.6728H45.3423V57.9289H48.5983V54.6728Z" fill="#E0E0E0"/>
<path d="M56.7707 54.5297H53.5146V57.7857H56.7707V54.5297Z" fill="#E0E0E0"/>
<path d="M64.6425 54.6728H61.3864V57.9289H64.6425V54.6728Z" fill="#E0E0E0"/>
<path d="M72.6645 54.6728H69.4085V57.9289H72.6645V54.6728Z" fill="#EBEBEB"/>
<path d="M80.6866 54.6728H77.4306V57.9289H80.6866V54.6728Z" fill="#E0E0E0"/>
<path d="M32.5542 61.5999H29.2981V64.856H32.5542V61.5999Z" fill="#E0E0E0"/>
<path d="M40.5762 61.5999H37.3202V64.856H40.5762V61.5999Z" fill="#EBEBEB"/>
<path d="M48.5983 61.5999H45.3423V64.856H48.5983V61.5999Z" fill="#E0E0E0"/>
<path d="M56.6204 61.5999H53.3643V64.856H56.6204V61.5999Z" fill="#E0E0E0"/>
<path d="M64.6425 61.5999H61.3864V64.856H64.6425V61.5999Z" fill="#E0E0E0"/>
<path d="M72.8077 61.4568H69.5516V64.7129H72.8077V61.4568Z" fill="#E0E0E0"/>
<path d="M80.6866 61.5999H77.4306V64.856H80.6866V61.5999Z" fill="#E0E0E0"/>
<path d="M160.062 110.635L133.386 120.677L140.156 138.659L166.831 128.617L160.062 110.635Z" fill="#EBEBEB"/>
<path d="M160.228 110.834C160.188 110.952 160.135 111.065 160.07 111.171L159.576 112.101C159.118 112.924 158.481 114.083 157.701 115.5C156.084 118.363 153.866 122.327 151.418 126.7L151.368 126.793H151.261L151.018 126.714L138.652 122.656L134.909 121.397L133.9 121.046C133.778 121.011 133.661 120.963 133.549 120.903C133.673 120.926 133.795 120.957 133.914 120.996L134.945 121.304L138.709 122.485L151.125 126.435L151.368 126.514L151.211 126.578C153.694 122.22 155.927 118.284 157.565 115.414L159.505 112.051L160.049 111.142C160.099 111.034 160.159 110.931 160.228 110.834Z" fill="#E0E0E0"/>
<path d="M140.319 138.858C140.255 138.858 141.328 135.616 142.731 131.666C144.133 127.716 145.314 124.51 145.378 124.56C145.443 124.61 144.369 127.809 142.974 131.716C141.579 135.623 140.391 138.858 140.319 138.858Z" fill="#E0E0E0"/>
<path d="M154.166 121.003C154.202 120.939 157.107 122.642 160.65 124.796C164.192 126.95 167.033 128.754 166.997 128.818C166.961 128.882 164.056 127.179 160.514 125.018C156.971 122.857 154.13 121.061 154.166 121.003Z" fill="#E0E0E0"/>
<path d="M194.606 53.8785C195.287 53.465 196.022 53.1448 196.788 52.9267L197.239 50.7798L200.889 50.7154L201.418 52.8623C202.192 53.0512 202.936 53.3449 203.63 53.7353L205.476 52.5259L208.102 55.0592L206.957 56.9485C207.37 57.6177 207.691 58.3399 207.909 59.0953L210.056 59.539L210.12 63.1958L207.974 63.7182C207.783 64.4922 207.492 65.238 207.108 65.9366L208.317 67.7757L205.777 70.4021L203.894 69.2642C203.211 69.6726 202.477 69.9902 201.712 70.2089L201.261 72.3557L197.611 72.4201L197.082 70.2733C196.309 70.0812 195.566 69.7876 194.871 69.4002L193.024 70.6096L190.398 68.0692L191.543 66.1871C191.128 65.5061 190.808 64.7718 190.591 64.0044L188.444 63.5536L188.38 59.904L190.527 59.3744C190.716 58.6023 191.007 57.8587 191.393 57.1631L190.183 55.3168L192.724 52.6905L194.606 53.8355V53.8785ZM196.552 58.7375C196.012 59.2947 195.65 59.9997 195.51 60.7631C195.371 61.5265 195.462 62.314 195.77 63.026C196.079 63.738 196.591 64.3425 197.244 64.7629C197.896 65.1833 198.658 65.4008 199.434 65.3877C200.21 65.3747 200.965 65.1318 201.602 64.6897C202.24 64.2476 202.732 63.6263 203.017 62.9043C203.301 62.1823 203.365 61.3922 203.2 60.6339C203.036 59.8756 202.65 59.1833 202.091 58.6445C201.723 58.2847 201.288 58.001 200.811 57.8095C200.333 57.618 199.823 57.5225 199.308 57.5285C198.794 57.5345 198.286 57.6418 197.813 57.8444C197.34 58.0469 196.912 58.3407 196.552 58.7089V58.7375Z" fill="#E0E0E0"/>
<path d="M196.552 58.7089C196.756 58.4602 196.997 58.2452 197.268 58.072C197.739 57.7661 198.271 57.5639 198.826 57.4789C199.382 57.3939 199.949 57.428 200.49 57.5789C201.032 57.7298 201.535 57.9941 201.966 58.3542C202.398 58.7143 202.748 59.1621 202.993 59.6678C203.347 60.3806 203.479 61.1833 203.372 61.9721C203.257 62.8217 202.876 63.6132 202.284 64.2334C201.688 64.8486 200.911 65.2573 200.066 65.3999C199.668 65.4642 199.262 65.4642 198.864 65.3999C198.478 65.3518 198.101 65.2456 197.747 65.085C197.094 64.7887 196.531 64.3244 196.116 63.7396C195.76 63.2279 195.529 62.6395 195.443 62.0222C195.307 61.1296 195.49 60.2177 195.958 59.4459C196.121 59.1764 196.327 58.9347 196.567 58.7303C196.567 58.7303 196.33 58.9879 196.03 59.5247C195.61 60.2902 195.458 61.1747 195.601 62.0365C195.694 62.6256 195.924 63.1845 196.273 63.6681C196.673 64.22 197.211 64.6569 197.833 64.9347C198.168 65.0831 198.522 65.182 198.885 65.2281C199.264 65.2887 199.651 65.2887 200.03 65.2281C200.828 65.0921 201.562 64.7062 202.127 64.1261C202.687 63.5362 203.048 62.7852 203.157 61.9792C203.247 61.2448 203.126 60.5 202.807 59.8324C202.51 59.217 202.056 58.6911 201.49 58.3081C200.995 57.9777 200.428 57.7693 199.837 57.6998C198.973 57.588 198.096 57.7694 197.347 58.2151C196.803 58.4942 196.574 58.7589 196.552 58.7089Z" fill="#E0E0E0"/>
<path d="M194.606 53.8785L194.484 53.814L194.126 53.6065L192.695 52.7621H192.738L190.219 55.4099V55.3383L191.436 57.1774C191.054 57.8704 190.767 58.6118 190.584 59.3816V59.4245H190.541L188.394 59.9612L188.451 59.8825C188.451 61.0275 188.502 62.2512 188.523 63.5321L188.459 63.4463L190.606 63.8899H190.656V63.94C190.874 64.6943 191.192 65.4163 191.6 66.0869V66.137V66.1871L190.484 68.1693V68.0405L193.117 70.5738H192.989L194.828 69.3573L194.885 69.3215L194.942 69.3573C195.631 69.7392 196.367 70.028 197.132 70.216H197.196V70.2804L197.719 72.4273L197.611 72.3485L201.261 72.2841L201.154 72.37C201.297 71.6544 201.454 70.9388 201.605 70.2232V70.1588H201.669C202.424 69.947 203.147 69.6315 203.816 69.2213H203.88H203.937L205.82 70.3663H205.684L208.217 67.74V67.8759C207.809 67.2533 207.401 66.6379 207.007 66.0296L206.972 65.9724V65.9151C207.357 65.2271 207.648 64.4906 207.838 63.7254V63.6609H207.902L210.049 63.1385L209.97 63.2459C209.97 62.0007 209.949 60.7842 209.906 59.5962L209.992 59.6964L207.845 59.2384H207.787V59.174C207.574 58.4202 207.262 57.6982 206.857 57.0272V56.9771V56.927L208.002 55.0378V55.1523L205.383 52.6118H205.49L203.644 53.814H203.601H203.558C202.867 53.4299 202.129 53.1387 201.361 52.9481H201.318V52.9052C201.132 52.1252 200.96 51.4239 200.796 50.7584L200.867 50.8085L197.211 50.8514H197.261C197.075 51.7101 196.924 52.4186 196.796 52.9982C196.219 53.1553 195.66 53.3711 195.128 53.6423L194.735 53.8427L194.599 53.9142C194.635 53.8804 194.676 53.8516 194.72 53.8284L195.107 53.6065C195.638 53.3235 196.197 53.0956 196.774 52.9267C196.889 52.3399 197.032 51.6314 197.204 50.7798V50.7369H197.246L200.896 50.6582H200.953V50.7083C201.118 51.3738 201.297 52.0751 201.49 52.8551L201.433 52.805C202.215 52.9946 202.968 53.2882 203.673 53.6781H203.587L205.433 52.4687L205.49 52.4257L205.54 52.4758L208.167 55.0091L208.224 55.0592L208.181 55.1236L207.043 57.0129V56.9127C207.462 57.6002 207.784 58.3418 208.002 59.1168L207.931 59.0452L210.077 59.4889H210.156V59.5676C210.156 60.7555 210.206 61.9721 210.228 63.2173V63.3031H210.142L207.995 63.8327L208.074 63.754C207.881 64.5364 207.585 65.2897 207.194 65.9939V65.865L208.41 67.7113L208.453 67.7829L208.396 67.8473L205.855 70.4736L205.798 70.538L205.719 70.4951L203.83 69.3501H203.945C203.257 69.7681 202.515 70.0907 201.741 70.309L201.819 70.2232C201.662 70.9388 201.512 71.7045 201.368 72.37V72.463H201.283L197.633 72.5203H197.547V72.4344C197.361 71.7188 197.182 70.9602 197.017 70.2876L197.096 70.3663C196.315 70.1711 195.562 69.8752 194.856 69.4861H194.971L193.124 70.6955L193.053 70.7384L192.996 70.6812L190.369 68.1407L190.312 68.0906L190.355 68.0191C190.756 67.3607 191.142 66.7166 191.5 66.137V66.2372C191.085 65.5464 190.764 64.8025 190.548 64.0259L190.613 64.0903L188.466 63.6395H188.394V63.5679C188.394 62.287 188.351 61.0704 188.337 59.9183V59.8539H188.394L190.541 59.3315L190.484 59.4245C190.677 58.6444 190.973 57.8935 191.364 57.1918V57.2633C190.928 56.5978 190.527 55.9752 190.162 55.4099L192.709 52.7979L194.141 53.6566L194.491 53.8856C194.57 53.8427 194.606 53.8713 194.606 53.8785Z" fill="#E0E0E0"/>
<path d="M17.6622 312.267C16.3526 311.15 13.44 307.594 15.6871 303.464C16.51 301.954 18.2633 301.203 19.8448 300.538C21.4263 299.872 23.0937 299.292 24.4033 298.176C26.8793 296.072 27.5592 292.58 29.1979 289.775C31.0872 286.554 34.6008 284.136 38.3149 284.307C42.6086 284.501 46.1151 287.978 47.7253 291.936C49.3354 295.893 49.3927 300.294 49.4213 304.574C49.4213 306.942 49.3354 309.583 47.5965 311.207C46.0006 312.682 43.589 312.696 41.4207 312.639L18.1703 311.923" fill="#F5F5F5"/>
<path d="M62.1235 248.348H0.988281L12.0016 314.013C12.2279 315.381 12.8384 316.658 13.762 317.693C14.6856 318.728 15.8843 319.479 17.2185 319.859L17.4332 319.924C17.6121 319.967 17.791 320.031 17.977 320.06C18.3871 320.144 18.8038 320.192 19.2222 320.203V320.267L19.5228 320.217H46.7807C47.2826 320.217 47.7835 320.169 48.2763 320.074C49.8708 319.826 51.34 319.062 52.4582 317.898C53.5764 316.735 54.2819 315.236 54.4664 313.633L59.7691 268.385L60.0124 266.581L62.1163 248.691L62.1235 248.348ZM50.5949 290.225H44.3189L44.9487 271.169H52.2193L50.5949 290.225ZM52.8276 271.169H58.8102L56.5703 290.225H51.2032L52.8276 271.169ZM34.9372 311.358L34.5579 294.798H43.5604L43.0093 311.358H34.9372ZM25.1332 294.798H33.9138L34.2931 311.358H26.4213L25.1332 294.798ZM25.8488 311.358H18.4565C17.7409 306.885 16.8464 301.074 15.8588 294.798H24.5249L25.8488 311.358ZM24.8183 290.225L23.337 271.169H33.37L33.8065 290.225H24.8183ZM34.4506 290.225L34.014 271.169H44.3404L43.7107 290.225H34.4506ZM33.9067 266.61L33.4988 248.963H45.0846L44.4978 266.596L33.9067 266.61ZM33.2984 266.61H22.9434L21.5981 248.949H32.8619L33.2984 266.61ZM22.3137 266.596H11.4148C11.0284 264.163 10.6634 261.851 10.3271 259.776C9.18926 252.62 8.75989 249.958 8.52373 248.949H20.9612L22.3137 266.596ZM22.6715 271.169L24.1528 290.225H15.1575C14.8498 288.293 14.5421 286.34 14.2344 284.379L12.1519 271.169H22.6715ZM14.5278 290.225H8.62392L5.43227 271.169H11.5222C12.4525 277.058 13.4901 283.613 14.5278 290.225ZM15.2434 294.798C16.1451 300.523 17.0253 306.177 17.8411 311.358H12.1734L9.38963 294.798H15.2434ZM43.6176 311.358L44.1687 294.798H50.2228L48.7915 311.358H43.6176ZM45.0989 266.596L45.6858 248.949H54.1157L52.6129 266.596H45.0989ZM7.94408 248.949C8.18739 250.222 9.30376 257.171 10.8066 266.596H4.66656L1.7039 248.949H7.94408ZM54.1229 311.358H49.3927L50.8239 294.798H56.0765L54.1229 311.358ZM59.3755 266.596H53.2212L54.7312 248.949H61.4437L59.3755 266.596Z" fill="#E0E0E0"/>
<path d="M311.065 319.544C311.065 319.652 245.543 319.73 164.729 319.73C83.914 319.73 18.3778 319.652 18.3778 319.544C18.3778 319.437 83.8854 319.358 164.729 319.358C245.572 319.358 311.065 319.444 311.065 319.544Z" fill="#263238"/>
<path d="M248.728 156.627C248.728 156.627 257.179 146.902 260.371 137.169C263.563 127.437 262.046 128.582 262.046 128.582C262.046 128.582 257.752 138.028 254.474 142.594C251.197 147.159 245.379 153.857 245.379 153.857L248.728 156.627Z" fill="#455A64"/>
<path d="M247.018 130.07C247.075 129.972 247.165 129.896 247.272 129.856C247.379 129.816 247.497 129.815 247.605 129.852C247.713 129.889 247.805 129.962 247.865 130.06C247.925 130.157 247.949 130.272 247.934 130.385C247.418 133.806 246.302 141.835 246.345 147.023C246.402 153.779 246.345 156.391 246.345 156.391H242.824C242.824 156.391 243.454 142.422 244.255 138.164C244.775 135.345 245.706 132.618 247.018 130.07Z" fill="#455A64"/>
<path d="M245.128 155.26C243.652 151.919 242.675 148.38 242.23 144.755C241.944 142.264 242.459 138.901 243.225 134.421C243.522 132.768 243.673 131.092 243.676 129.412C243.672 129.227 243.607 129.048 243.491 128.903C243.375 128.758 243.215 128.655 243.035 128.611C242.856 128.566 242.666 128.581 242.496 128.655C242.326 128.729 242.185 128.856 242.094 129.018C241.243 130.589 240.585 132.256 240.133 133.985C239.282 138.414 238.316 140.626 239.053 144.833C239.79 149.041 242.516 155.503 242.516 155.503L245.128 155.26Z" fill="#455A64"/>
<path d="M241.958 155.539C241.958 155.539 232.655 135.595 232.033 132.639C231.41 129.684 229.206 122.857 228.948 123.243C228.691 123.63 228.304 127.236 229.979 131.351C231.653 135.466 238.788 156.147 238.788 156.147H241.958" fill="#455A64"/>
<path d="M246.145 154.652C246.145 154.652 246.238 154.594 246.402 154.473C246.567 154.351 246.817 154.172 247.118 153.922C247.984 153.229 248.815 152.494 249.608 151.718C252.214 149.145 254.471 146.241 256.321 143.08C258.18 139.922 259.728 136.591 260.944 133.133C261.416 131.809 261.752 130.729 261.974 129.97C262.089 129.598 262.167 129.305 262.217 129.104C262.252 129.005 262.276 128.901 262.289 128.796C262.289 128.796 262.246 128.897 262.182 129.09L261.902 129.949C261.659 130.664 261.294 131.773 260.815 133.09C259.572 136.523 258.02 139.835 256.178 142.987C254.33 146.138 252.092 149.043 249.515 151.632C248.528 152.619 247.676 153.371 247.075 153.879L246.359 154.451C246.282 154.512 246.21 154.579 246.145 154.652Z" fill="#263238"/>
<path d="M245.128 145.084C245.174 144.891 245.203 144.695 245.214 144.497C245.257 144.082 245.314 143.545 245.379 142.894C245.529 141.549 245.758 139.688 246.094 137.641C246.431 135.595 246.81 133.756 247.075 132.432L247.411 130.857C247.463 130.668 247.496 130.474 247.511 130.278C247.441 130.463 247.382 130.652 247.333 130.843C247.232 131.208 247.096 131.738 246.932 132.403C246.617 133.72 246.216 135.559 245.901 137.613C245.586 139.667 245.365 141.527 245.25 142.88C245.193 143.56 245.157 144.111 245.143 144.49C245.118 144.687 245.113 144.886 245.128 145.084Z" fill="#263238"/>
<path d="M242.953 128.897C242.91 128.977 242.874 129.061 242.846 129.147L242.566 129.863C242.445 130.185 242.302 130.578 242.166 131.051C242.03 131.523 241.851 132.045 241.715 132.646C241.643 132.947 241.565 133.262 241.486 133.584C241.407 133.906 241.357 134.257 241.286 134.614C241.128 135.33 241.035 136.089 240.928 136.89C240.723 138.645 240.649 140.413 240.706 142.179C240.776 143.946 240.972 145.706 241.293 147.445C241.464 148.24 241.615 148.998 241.815 149.692C241.915 150.043 241.994 150.408 242.094 150.702L242.388 151.625C242.566 152.211 242.781 152.727 242.953 153.185C243.125 153.643 243.289 154.029 243.44 154.337L243.769 155.052C243.804 155.138 243.847 155.219 243.898 155.296C243.898 155.296 243.898 155.203 243.805 155.031C243.711 154.859 243.633 154.602 243.504 154.315C243.375 154.029 243.218 153.6 243.06 153.149C242.903 152.698 242.688 152.176 242.524 151.589L242.237 150.666C242.144 150.351 242.066 150.007 241.973 149.657C241.779 148.941 241.636 148.225 241.472 147.417C241.165 145.688 240.971 143.94 240.892 142.186C240.841 140.43 240.911 138.672 241.099 136.926C241.207 136.124 241.293 135.359 241.436 134.657C241.507 134.3 241.557 133.942 241.629 133.634C241.701 133.326 241.779 132.99 241.844 132.697C241.973 132.095 242.137 131.566 242.266 131.094C242.395 130.621 242.524 130.228 242.631 129.899L242.874 129.147C242.91 129.067 242.937 128.983 242.953 128.897Z" fill="#263238"/>
<path d="M229.056 123.644C229.056 123.644 229.056 123.644 229.056 123.737V123.995C229.099 124.224 229.149 124.56 229.242 124.989C229.421 125.848 229.721 127.079 230.186 128.567C230.651 130.056 231.281 131.816 232.033 133.749C232.784 135.681 233.65 137.785 234.473 140.024C235.296 142.264 235.954 144.44 236.562 146.422C237.171 148.404 237.729 150.179 238.28 151.653C238.694 152.814 239.172 153.951 239.711 155.06C239.897 155.453 240.069 155.775 240.183 155.954L240.312 156.183C240.326 156.209 240.343 156.233 240.362 156.255C240.353 156.225 240.341 156.196 240.327 156.169L240.219 155.933C240.119 155.725 239.962 155.425 239.783 155.031C239.247 153.914 238.769 152.77 238.352 151.603C237.815 150.129 237.264 148.354 236.67 146.372C236.076 144.39 235.432 142.2 234.595 139.931C233.757 137.663 232.891 135.588 232.14 133.663C231.389 131.738 230.709 129.992 230.251 128.503C229.793 127.015 229.456 125.784 229.249 124.925C229.149 124.503 229.084 124.166 229.034 123.945L228.97 123.687L229.056 123.644Z" fill="#263238"/>
<path d="M257.673 119.243C257.802 119.122 257.967 119.047 258.142 119.029C258.318 119.011 258.495 119.052 258.645 119.145C258.795 119.238 258.91 119.378 258.973 119.543C259.035 119.708 259.041 119.89 258.99 120.059C258.667 121.083 258.277 122.084 257.823 123.057C256.543 125.769 252.814 135.495 251.039 140.84C249.265 146.186 246.817 156.147 246.817 156.147L243.067 155.539C243.067 155.539 246.495 139.166 249.844 133.262C252.535 128.517 255.226 121.683 257.673 119.243Z" fill="#455A64"/>
<path d="M250.016 144.182C249.935 144.322 249.87 144.471 249.823 144.626C249.716 144.919 249.565 145.342 249.393 145.885C249.05 146.952 248.628 148.447 248.198 150.108C247.769 151.768 247.418 153.271 247.175 154.365C247.061 154.888 246.968 155.317 246.896 155.668C246.852 155.824 246.825 155.985 246.817 156.147C246.885 155.999 246.935 155.842 246.968 155.682C247.061 155.346 247.175 154.909 247.311 154.401L248.392 150.158C248.814 148.497 249.215 147.002 249.529 145.928C249.673 145.42 249.801 144.991 249.894 144.655C249.953 144.502 249.994 144.344 250.016 144.182Z" fill="#263238"/>
<path d="M244.935 155.847V155.747L244.978 155.453C245.014 155.188 245.05 154.809 245.128 154.315C245.264 153.328 245.515 151.911 245.916 150.186C246.393 148.16 246.979 146.161 247.669 144.197C248.435 141.978 249.401 139.581 250.496 137.098C252.7 132.138 254.897 127.745 256.342 124.488C257.058 122.871 257.645 121.547 258.017 120.624C258.203 120.159 258.339 119.801 258.439 119.558C258.482 119.443 258.51 119.35 258.539 119.279C258.568 119.207 258.575 119.179 258.539 119.179L258.496 119.272C258.46 119.343 258.425 119.429 258.374 119.544C258.26 119.794 258.11 120.145 257.916 120.588C257.523 121.504 256.936 122.821 256.192 124.431C254.711 127.666 252.492 132.053 250.281 137.019C249.186 139.502 248.227 141.907 247.468 144.139C246.782 146.109 246.208 148.116 245.751 150.15C245.443 151.524 245.204 152.911 245.035 154.308C244.971 154.795 244.95 155.188 244.921 155.446V155.739C244.926 155.811 244.93 155.847 244.935 155.847Z" fill="#263238"/>
<path d="M243.067 155.539C243.128 155.333 243.171 155.122 243.196 154.909C243.268 154.473 243.368 153.893 243.49 153.192C243.747 151.761 244.141 149.735 244.706 147.56C245.272 145.384 245.901 143.445 246.388 142.057C246.624 141.384 246.824 140.833 246.975 140.411C247.055 140.214 247.12 140.01 247.168 139.803C247.066 139.989 246.977 140.183 246.903 140.382C246.739 140.762 246.51 141.313 246.252 142.007C245.579 143.81 244.999 145.647 244.513 147.51C243.948 149.657 243.576 151.703 243.347 153.163C243.239 153.879 243.16 154.487 243.118 154.902C243.085 155.113 243.068 155.326 243.067 155.539Z" fill="#263238"/>
<path d="M235.382 172.821H250.002V155.002H235.382V172.821Z" fill="#FED36A"/>
<g opacity="0.3">
<path d="M235.382 172.821H250.002V155.002H235.382V172.821Z" fill="black"/>
</g>
<path d="M240.04 172.821H253.015V155.002H240.04V172.821Z" fill="#FED36A"/>
<path d="M118.603 8.25215L91.4573 16.9417L97.3151 35.2414L124.461 26.5518L118.603 8.25215Z" fill="#FED36A"/>
<path d="M118.765 8.42957C118.715 8.54446 118.655 8.65464 118.586 8.75875C118.45 8.98775 118.271 9.2883 118.042 9.66043L116.002 12.9666L109.168 23.8368L109.111 23.9227H109.011L108.775 23.8297L96.6091 19.1638L92.938 17.7326L91.9433 17.3318C91.8243 17.2898 91.7093 17.2371 91.5998 17.1744C91.7222 17.1986 91.842 17.2346 91.9576 17.2818L92.9738 17.6396L96.6735 19.0064L108.839 23.6078L109.082 23.6937L108.925 23.7509L115.831 12.9165C116.711 11.5568 117.426 10.4476 117.942 9.66043L118.521 8.78022C118.592 8.65619 118.673 8.53882 118.765 8.42957Z" fill="#263238"/>
<path d="M97.4535 35.4227C97.3891 35.4227 98.6272 32.231 100.216 28.3595C101.805 24.488 103.157 21.3679 103.221 21.3966C103.286 21.4252 102.055 24.5882 100.459 28.4597C98.8633 32.3312 97.5394 35.4513 97.4535 35.4227Z" fill="#263238"/>
<path d="M112.195 18.2764C112.238 18.2192 115.058 20.0655 118.478 22.3984C121.899 24.7313 124.661 26.6921 124.618 26.6921C124.575 26.6921 121.756 24.9102 118.335 22.5773C114.915 20.2444 112.152 18.3408 112.195 18.2764Z" fill="#263238"/>
<path d="M238.545 47.9245L218.343 39.3872C217.683 39.0977 217.163 38.5604 216.895 37.8911C216.627 37.2217 216.633 36.474 216.912 35.8091L228.762 7.84274C229.05 7.18128 229.587 6.66005 230.257 6.39211C230.927 6.12417 231.676 6.13114 232.34 6.41151L245.157 11.8359L250.739 26.2627L242.151 46.5362C241.854 47.1958 241.309 47.7116 240.633 47.9715C239.958 48.2314 239.208 48.2145 238.545 47.9245Z" fill="#FED36A"/>
<path d="M245.15 11.7643L241.815 19.6361C241.683 19.9447 241.613 20.2763 241.61 20.612C241.607 20.9476 241.67 21.2806 241.795 21.5918C241.921 21.903 242.107 22.1863 242.342 22.4254C242.578 22.6645 242.858 22.8548 243.168 22.9852L250.732 26.1912L245.15 11.7643Z" fill="#FED36A"/>
<g opacity="0.2">
<path d="M241.622 20.3732C241.379 20.9718 241.346 21.6348 241.528 22.2545C241.71 22.8742 242.096 23.4142 242.624 23.7867C242.695 23.8455 242.769 23.9005 242.846 23.9513C243.762 24.5453 249.773 28.4597 249.837 28.3094L250.732 26.1625L243.168 22.9566C243.168 22.9566 241.293 22.1193 241.622 20.3732Z" fill="black"/>
</g>
<g opacity="0.3">
<path d="M245.15 11.7643L241.815 19.6361C241.683 19.9447 241.613 20.2763 241.61 20.612C241.607 20.9476 241.67 21.2806 241.795 21.5918C241.921 21.903 242.107 22.1863 242.342 22.4254C242.578 22.6645 242.858 22.8548 243.168 22.9852L250.732 26.1912L245.15 11.7643Z" fill="white"/>
</g>
<path d="M240.255 18.6342C238.627 18.1603 237.038 17.5597 235.503 16.838C233.918 16.2394 232.379 15.5217 230.902 14.6912C232.534 15.1606 234.126 15.7613 235.661 16.4874C237.246 17.0815 238.782 17.7993 240.255 18.6342Z" fill="#FAFAFA"/>
<path d="M244.406 25.6044C244.363 25.7045 240.885 24.3306 236.634 22.5272C232.383 20.7238 228.977 19.1924 229.02 19.0851C229.063 18.9777 232.541 20.366 236.791 22.1622C241.042 23.9584 244.449 25.5042 244.406 25.6044Z" fill="#FAFAFA"/>
<path d="M244.22 29.9124C244.177 30.0126 240.384 28.4812 235.754 26.5418C231.124 24.6025 227.403 22.928 227.445 22.8063C227.488 22.6847 231.274 24.2375 235.911 26.1769C240.548 28.1162 244.262 29.8051 244.22 29.9124Z" fill="#FAFAFA"/>
<path d="M242.724 33.4189C242.681 33.5191 238.895 31.9877 234.265 30.0484C229.635 28.109 225.914 26.413 225.95 26.3128C225.986 26.2127 229.786 27.7441 234.416 29.6834C239.046 31.6227 242.774 33.3116 242.724 33.4189Z" fill="#FAFAFA"/>
<path d="M241.25 36.9183C241.207 37.0256 237.414 35.487 232.784 33.5549C228.154 31.6227 224.433 29.9195 224.476 29.8193C224.519 29.7192 228.304 31.2506 232.941 33.1899C237.579 35.1292 241.293 36.8181 241.25 36.9183Z" fill="#FAFAFA"/>
<path d="M239.761 40.4248C239.718 40.5321 235.926 38.9936 231.296 37.0614C226.665 35.1292 222.944 33.4261 222.987 33.3259C223.03 33.2257 226.823 34.7571 231.453 36.6893C236.083 38.6215 239.804 40.3246 239.761 40.4248Z" fill="#FAFAFA"/>
<path d="M170.604 53.857C185.366 53.857 197.332 41.8903 197.332 27.1286C197.332 12.367 185.366 0.40033 170.604 0.40033C155.842 0.40033 143.876 12.367 143.876 27.1286C143.876 41.8903 155.842 53.857 170.604 53.857Z" fill="white"/>
<path d="M197.332 27.1287C197.332 27.1287 197.332 26.9855 197.289 26.6993C197.246 26.413 197.239 25.9837 197.203 25.4255C197.203 25.1464 197.168 24.8387 197.146 24.4952C197.125 24.1517 197.039 23.7796 196.982 23.3788C196.862 22.4483 196.675 21.5275 196.423 20.6237C195.799 18.1239 194.8 15.7329 193.461 13.5319C191.52 10.2986 188.917 7.51284 185.822 5.35804C182.728 3.20324 179.212 1.72823 175.506 1.03008C174.397 0.824005 173.276 0.694885 172.15 0.64365C171.577 0.64365 170.998 0.564931 170.418 0.572087L168.657 0.665118C168.364 0.665118 168.064 0.665119 167.77 0.722369L166.883 0.858335C166.296 0.958521 165.695 1.03008 165.101 1.15174C162.665 1.69896 160.31 2.56013 158.095 3.71365C157.537 4.01421 157 4.37202 156.442 4.7012C156.17 4.87295 155.884 5.02323 155.619 5.21645L154.839 5.80325C152.672 7.37675 150.777 9.29361 149.228 11.4781L148.62 12.2939L148.083 13.167L147.547 14.0114C147.358 14.299 147.19 14.6004 147.046 14.9131C146.752 15.5357 146.452 16.1582 146.144 16.788L145.429 18.7488C144.555 21.4579 144.092 24.2825 144.055 27.1287C144.092 29.9725 144.555 32.7947 145.429 35.5014C145.665 36.1598 145.908 36.8181 146.144 37.4693C146.38 38.1205 146.745 38.7217 147.046 39.3371C147.188 39.6529 147.356 39.9568 147.547 40.2459L148.083 41.1261L148.613 41.9992L149.228 42.815C150.022 43.8995 150.89 44.9277 151.826 45.8922C152.773 46.8118 153.779 47.6676 154.839 48.4541L155.619 49.0409C155.884 49.2341 156.17 49.3844 156.442 49.5561C157 49.8853 157.537 50.2717 158.095 50.5437C160.31 51.6972 162.665 52.5584 165.101 53.1056C165.695 53.2344 166.296 53.2988 166.89 53.399L167.77 53.5349C168.071 53.5349 168.364 53.5349 168.657 53.5922L170.447 53.6995C171.026 53.6995 171.606 53.6495 172.178 53.6351C173.305 53.5815 174.426 53.45 175.535 53.2416C179.241 52.546 182.758 51.072 185.853 48.917C188.948 46.7619 191.551 43.9748 193.489 40.7397C194.818 38.5415 195.807 36.1555 196.423 33.6622C196.675 32.7584 196.862 31.8377 196.982 30.9071C197.039 30.5064 197.11 30.1343 197.146 29.7908C197.182 29.4473 197.189 29.1395 197.203 28.8605C197.242 28.307 197.27 27.8848 197.289 27.5938C197.289 27.3076 197.332 27.1573 197.332 27.1573C197.332 27.1573 197.332 27.3076 197.332 27.5938C197.332 27.8801 197.332 28.3094 197.289 28.8605C197.289 29.1467 197.289 29.4544 197.246 29.8051C197.203 30.1557 197.153 30.5207 197.096 30.9214C196.986 31.8466 196.809 32.7626 196.567 33.6622C195.96 36.1825 194.973 38.5956 193.64 40.8184C191.701 44.0981 189.086 46.9276 185.97 49.1189C182.853 51.3102 179.305 52.8131 175.563 53.5278C174.443 53.7383 173.31 53.8721 172.171 53.9285C171.592 53.9285 171.005 54.0073 170.418 54.0001L168.636 53.9142C168.335 53.9142 168.035 53.9142 167.734 53.857L166.868 53.6995C166.267 53.5994 165.659 53.535 165.058 53.4061C163.843 53.14 162.647 52.7909 161.48 52.3613C160.275 51.9315 159.101 51.4198 157.966 50.8299C157.401 50.5222 156.85 50.1644 156.292 49.8281C156.013 49.6491 155.719 49.4989 155.454 49.3057L154.667 48.7117C153.593 47.9158 152.572 47.0504 151.611 46.1212C150.661 45.1425 149.779 44.1 148.971 43.0011L148.348 42.1781L147.804 41.2907L147.268 40.3962C147.073 40.1054 146.903 39.799 146.76 39.4802C146.459 38.8505 146.151 38.2207 145.851 37.5838L145.135 35.5873C144.253 32.8429 143.785 29.9824 143.747 27.1C143.769 24.2272 144.22 21.3738 145.085 18.6343L145.801 16.6449L146.717 14.7413C146.86 14.4234 147.027 14.1172 147.218 13.8253L147.761 12.938L148.298 12.0506L148.921 11.2205C149.731 10.1253 150.613 9.08531 151.561 8.10754C152.522 7.17829 153.543 6.31293 154.617 5.517L155.404 4.92304C155.669 4.72983 155.962 4.57955 156.242 4.40064C156.8 4.07146 157.351 3.68503 157.916 3.40593C160.161 2.2425 162.547 1.37418 165.015 0.822555C165.616 0.7009 166.224 0.629338 166.826 0.529151L167.72 0.393182C168.021 0.393182 168.321 0.393184 168.622 0.335934L170.404 0.250061C170.99 0.250061 171.57 0.300153 172.15 0.321622C173.29 0.38115 174.426 0.515018 175.549 0.722369C179.291 1.43705 182.839 2.93997 185.955 5.13127C189.072 7.32257 191.687 10.1521 193.625 13.4317C194.959 15.6546 195.946 18.0677 196.552 20.5879C196.794 21.4995 196.969 22.4275 197.075 23.3645C197.132 23.7724 197.196 24.1445 197.225 24.488L197.268 25.4255C197.268 25.9765 197.304 26.3987 197.311 26.6993C197.318 26.9998 197.332 27.1287 197.332 27.1287Z" fill="#263238"/>
<path d="M183.278 26.3773C182.928 26.5059 182.569 26.6088 182.204 26.685L179.22 27.4006C176.694 27.9874 173.187 28.7817 169.266 29.6405L169.044 29.6906V28.6529C169.044 24.4666 169.044 20.6738 169.094 17.9187C169.094 16.6019 169.144 15.507 169.158 14.6698C169.148 14.2725 169.172 13.875 169.23 13.4818C169.284 13.8754 169.308 14.2726 169.302 14.6698C169.302 15.507 169.337 16.6019 169.359 17.9187C169.359 20.6666 169.416 24.4594 169.416 28.6529V29.433L169.187 29.2469C173.109 28.3953 176.622 27.6439 179.163 27.1L182.168 26.5061C182.533 26.4289 182.905 26.3858 183.278 26.3773Z" fill="#263238"/>
<path d="M199.243 38.1492C199.269 37.9999 199.31 37.8537 199.365 37.7126C199.443 37.4336 199.608 36.997 199.751 36.4961C200.211 34.9948 200.561 33.4616 200.796 31.909C201.614 26.7788 201.125 21.5253 199.373 16.6344C197.622 11.7435 194.666 7.37337 190.777 3.92833C189.612 2.88628 188.373 1.92964 187.07 1.06586C186.612 0.743833 186.233 0.529148 185.997 0.350244C185.866 0.274693 185.742 0.188529 185.625 0.0926208C185.77 0.135918 185.907 0.201072 186.033 0.285838C186.283 0.428961 186.677 0.622177 187.149 0.929892C188.494 1.75735 189.767 2.69568 190.956 3.73511C194.927 7.17104 197.942 11.5758 199.708 16.5214C201.473 21.4669 201.929 26.7851 201.032 31.9591C200.778 33.5095 200.398 35.0365 199.894 36.5247C199.722 37.0543 199.536 37.455 199.436 37.727C199.388 37.8746 199.323 38.0163 199.243 38.1492Z" fill="#263238"/>
<path d="M204.367 24.9961C204.31 24.9961 204.274 23.9299 204.059 22.2267C203.772 20.012 203.269 17.8309 202.556 15.7146C201.837 13.6071 200.909 11.5767 199.787 9.65329C198.914 8.17196 198.284 7.31322 198.356 7.27744C198.548 7.43864 198.717 7.62661 198.857 7.83562C199.15 8.22205 199.572 8.78739 200.03 9.51016C201.248 11.4132 202.233 13.4553 202.964 15.5929C203.701 17.7302 204.181 19.9475 204.395 22.1981C204.474 23.0568 204.496 23.7581 204.496 24.2447C204.492 24.5004 204.449 24.754 204.367 24.9961Z" fill="#263238"/>
<path d="M143.919 11.6498C143.876 11.7926 143.816 11.9296 143.74 12.0577C143.611 12.3225 143.389 12.6946 143.16 13.2027C140.465 18.5565 139.378 24.5759 140.029 30.5341C140.681 36.4923 143.043 42.1346 146.831 46.7795C147.817 47.9989 148.889 49.1468 150.037 50.2145C150.438 50.6009 150.753 50.8728 150.989 51.0732C151.104 51.1701 151.212 51.2753 151.311 51.3881C151.177 51.318 151.052 51.2315 150.939 51.1305C150.71 50.9516 150.359 50.6939 149.944 50.3218C148.749 49.2887 147.641 48.159 146.631 46.9441C143.254 42.9216 140.976 38.0931 140.019 32.9288C139.062 27.7645 139.459 22.4404 141.171 17.475C141.675 15.9792 142.305 14.5286 143.053 13.1383C143.303 12.6374 143.546 12.2724 143.69 12.022C143.755 11.8918 143.832 11.7673 143.919 11.6498Z" fill="#263238"/>
<path d="M136.77 23.8225C136.834 23.8225 136.698 24.8888 136.641 26.6063C136.565 28.8366 136.716 31.0689 137.092 33.2687C137.475 35.4706 138.079 37.6284 138.895 39.7092C139.518 41.305 140.004 42.2568 139.947 42.2854C139.786 42.0917 139.651 41.8776 139.546 41.6485C139.31 41.2263 138.995 40.6037 138.652 39.8094C137.753 37.7472 137.105 35.585 136.719 33.3688C136.34 31.1432 136.224 28.8805 136.376 26.6277C136.44 25.7618 136.526 25.0677 136.605 24.5882C136.625 24.3267 136.68 24.0691 136.77 23.8225Z" fill="#263238"/>
<path d="M192.731 31.5154C191.722 31.3079 190.906 31.129 190.906 31.1218C190.906 31.1147 191.729 31.2721 192.738 31.4796C193.747 31.6872 194.563 31.8589 194.556 31.8661C194.549 31.8732 193.733 31.7516 192.731 31.5154Z" fill="#263238"/>
<path d="M190.14 38.278C189.253 37.7556 188.537 37.3262 188.537 37.3191C188.537 37.3119 189.253 37.727 190.155 38.2494C191.056 38.7718 191.758 39.2011 191.75 39.2083C191.743 39.2154 191.021 38.8004 190.14 38.278Z" fill="#263238"/>
<path d="M185.475 43.8025C184.802 43.0154 184.265 42.3713 184.272 42.3713C184.279 42.3713 184.83 42.9939 185.496 43.8025C186.161 44.6112 186.705 45.2338 186.691 45.2338C186.677 45.2338 186.19 44.5826 185.475 43.8025Z" fill="#263238"/>
<path d="M179.313 47.5238C178.934 46.5648 178.633 45.7848 178.64 45.7848C178.648 45.7848 178.962 46.5505 179.356 47.5095C179.75 48.4684 180.036 49.2413 180.021 49.2484C180.007 49.2556 179.692 48.4755 179.313 47.5238Z" fill="#263238"/>
<path d="M172.257 49.0337C172.214 48.0032 172.185 47.1731 172.193 47.1731C172.2 47.1731 172.25 48.0032 172.293 49.0337C172.336 50.0642 172.372 50.8943 172.364 50.8943C172.357 50.8943 172.307 50.0642 172.257 49.0337Z" fill="#263238"/>
<path d="M165.094 48.1678C165.38 47.1803 165.616 46.3859 165.63 46.3859C165.645 46.3859 165.416 47.1946 165.13 48.1821C164.843 49.1697 164.6 49.964 164.586 49.964C164.571 49.964 164.8 49.1554 165.094 48.1678Z" fill="#263238"/>
<path d="M158.589 45.0334C159.183 44.189 159.669 43.5163 159.684 43.5235C159.698 43.5306 159.211 44.2391 158.617 45.0549C158.023 45.8707 157.565 46.5434 157.565 46.5434C157.565 46.5434 157.995 45.8707 158.589 45.0334Z" fill="#263238"/>
<path d="M153.472 39.9525C154.302 39.3442 154.982 38.8648 154.989 38.8719C154.996 38.8791 154.324 39.3729 153.486 39.9811C152.649 40.5894 151.976 41.0617 151.969 41.0546C151.962 41.0474 152.635 40.5536 153.472 39.9525Z" fill="#263238"/>
<path d="M150.266 33.4833C151.254 33.1828 152.055 32.9466 152.055 32.9538C152.055 32.9609 151.261 33.2186 150.273 33.5191C149.286 33.8197 148.491 34.0487 148.491 34.0415C148.491 34.0344 149.286 33.7839 150.266 33.4833Z" fill="#263238"/>
<path d="M149.343 26.3272C150.373 26.3272 151.204 26.3987 151.204 26.4131C151.204 26.4274 150.366 26.4131 149.343 26.363C148.32 26.3129 147.475 26.2842 147.482 26.2771C147.49 26.2699 148.312 26.2842 149.343 26.3272Z" fill="#263238"/>
<path d="M150.789 19.2497C151.755 19.6218 152.527 19.9224 152.527 19.9653C152.527 20.0083 151.74 19.6791 150.774 19.3141C149.808 18.9491 149.042 18.6414 149.042 18.6343C149.042 18.6271 149.83 18.8847 150.789 19.2497Z" fill="#263238"/>
<path d="M154.46 13.031C155.247 13.6965 155.891 14.2404 155.891 14.2475C155.891 14.2547 155.24 13.7251 154.46 13.0596C153.68 12.3941 153.028 11.8574 153.028 11.8502C153.028 11.8431 153.665 12.3726 154.46 13.031Z" fill="#263238"/>
<path d="M159.941 8.35084C160.471 9.23105 160.9 9.94667 160.893 9.95382C160.886 9.96098 160.442 9.23821 159.913 8.36515C159.383 7.4921 158.954 6.76932 158.961 6.76217C158.968 6.75501 159.412 7.47063 159.941 8.35084Z" fill="#263238"/>
<path d="M166.647 5.68875C166.861 6.69777 167.033 7.51357 167.026 7.51357C167.019 7.51357 166.833 6.70492 166.611 5.6959C166.389 4.68688 166.224 3.87824 166.239 3.87108C166.253 3.86392 166.432 4.68688 166.647 5.68875Z" fill="#263238"/>
<path d="M173.853 5.35955C173.731 6.38289 173.624 7.20585 173.617 7.20585C173.61 7.20585 173.695 6.37573 173.824 5.3524C173.953 4.32906 174.053 3.5061 174.06 3.5061C174.068 3.5061 173.982 4.32191 173.853 5.35955Z" fill="#263238"/>
<path d="M180.787 7.38477C180.344 8.30792 179.971 9.05932 179.964 9.05216C179.957 9.04501 180.308 8.29361 180.751 7.3633C181.195 6.433 181.567 5.68876 181.582 5.69591C181.596 5.70307 181.231 6.46878 180.787 7.38477Z" fill="#263238"/>
<path d="M186.677 11.5497C185.961 12.2653 185.36 12.8664 185.353 12.8592C185.346 12.8521 185.932 12.251 186.655 11.521C187.378 10.7911 187.972 10.2043 187.979 10.2115C187.986 10.2186 187.407 10.8197 186.677 11.5497Z" fill="#263238"/>
<path d="M190.899 17.3963C189.976 17.8543 189.224 18.2192 189.224 18.2121C189.224 18.2049 189.94 17.8256 190.885 17.3676C191.829 16.9096 192.559 16.5447 192.559 16.5518C192.559 16.559 191.822 16.9383 190.899 17.3963Z" fill="#263238"/>
<path d="M193.003 24.302L191.149 24.5238C191.149 24.5238 191.972 24.395 192.996 24.2662C194.019 24.1374 194.842 24.03 194.842 24.0372C194.842 24.0444 194.019 24.166 193.003 24.302Z" fill="#263238"/>
<path d="M206.227 21.8331C205.83 23.0414 205.318 24.2085 204.696 25.3182L204.653 25.3969L204.51 25.6903L204.331 25.4183C203.611 24.4134 202.993 23.3395 202.485 22.2124C203.31 23.1359 204.044 24.1377 204.675 25.2037H204.352L204.395 25.1178C204.898 23.9662 205.512 22.8661 206.227 21.8331Z" fill="#263238"/>
<path d="M218.393 82.267H134.286C132.311 82.267 130.416 83.0519 129.019 84.4489C127.622 85.846 126.837 87.7408 126.837 89.7166C126.837 91.6923 127.622 93.5872 129.019 94.9842C130.416 96.3813 132.311 97.1662 134.286 97.1662H173.645L182.455 105.56V97.1662H218.393C219.371 97.1662 220.34 96.9735 221.244 96.5991C222.148 96.2247 222.969 95.676 223.661 94.9842C224.352 94.2925 224.901 93.4712 225.275 92.5674C225.65 91.6636 225.843 90.6949 225.843 89.7166C225.843 88.7383 225.65 87.7696 225.275 86.8658C224.901 85.9619 224.352 85.1407 223.661 84.4489C222.969 83.7572 222.148 83.2084 221.244 82.8341C220.34 82.4597 219.371 82.267 218.393 82.267Z" fill="#FAFAFA"/>
<path d="M218.393 82.267H218.665C218.938 82.2698 219.211 82.2913 219.481 82.3314C220.543 82.4739 221.562 82.8476 222.465 83.4263C223.328 83.976 224.07 84.6967 224.644 85.544C225.219 86.3912 225.614 87.347 225.805 88.3526C225.996 89.3582 225.979 90.3923 225.755 91.3911C225.532 92.39 225.106 93.3325 224.504 94.1606C223.691 95.2926 222.582 96.179 221.298 96.7225C220.61 97.0009 219.888 97.1862 219.151 97.2735C218.386 97.3308 217.627 97.3093 216.84 97.3164H206.707H182.44L182.605 97.1519C182.605 99.7853 182.605 102.633 182.605 105.546V105.94L182.319 105.668L173.502 97.2735L173.624 97.3236H140.176H134.336C132.387 97.3439 130.504 96.6172 129.074 95.2926C127.643 93.968 126.774 92.146 126.645 90.2008C126.516 88.2556 127.137 86.3348 128.379 84.8328C129.622 83.3307 131.393 82.3614 133.327 82.1239C134.258 82.0237 135.152 82.0738 136.054 82.0595H149.15L185.188 82.1024L209.519 82.1597L216.124 82.1954H217.842C218.228 82.1954 218.429 82.1954 218.429 82.1954H217.842H216.124L209.519 82.2312L185.188 82.2956H149.15H136.054C135.159 82.2956 134.243 82.2956 133.378 82.36C131.585 82.5828 129.941 83.4687 128.769 84.8432C127.866 85.9024 127.287 87.1984 127.099 88.5772C126.911 89.9561 127.122 91.3599 127.709 92.622C128.295 93.8842 129.231 94.9515 130.406 95.6974C131.581 96.4432 132.945 96.8363 134.336 96.8298H140.176H173.624H173.695L173.746 96.8728L182.555 105.274L182.269 105.396C182.269 102.483 182.269 99.635 182.269 97.0016V96.8441H182.426H206.693H216.826C217.606 96.8441 218.379 96.8441 219.116 96.8441C219.835 96.7642 220.54 96.5886 221.212 96.3217C222.696 95.6974 223.935 94.6059 224.742 93.213C225.549 91.8202 225.879 90.2021 225.682 88.6046C225.485 87.0071 224.772 85.5175 223.652 84.362C222.531 83.2065 221.064 82.4483 219.474 82.2026C218.765 82.2742 218.393 82.3243 218.393 82.267Z" fill="#263238"/>
<path d="M171.069 94.9835H134.236C133.544 94.9845 132.859 94.8489 132.22 94.5845C131.58 94.3202 130.999 93.9322 130.51 93.443C130.021 92.9537 129.633 92.3727 129.368 91.7333C129.104 91.0938 128.968 90.4085 128.969 89.7166C128.973 88.3228 129.53 86.9876 130.517 86.0041C131.505 85.0206 132.843 84.4692 134.236 84.4711H171.069C171.76 84.4702 172.445 84.6055 173.084 84.8694C173.723 85.1333 174.304 85.5206 174.793 86.0091C175.282 86.4976 175.67 87.0778 175.935 87.7164C176.2 88.355 176.336 89.0396 176.336 89.7309C176.335 90.4216 176.198 91.1054 175.933 91.7432C175.668 92.381 175.28 92.9603 174.79 93.448C174.301 93.9358 173.721 94.3224 173.083 94.5859C172.444 94.8493 171.76 94.9845 171.069 94.9835Z" fill="#FED36A"/>
<path d="M174.153 74.5884L172.908 78.3955H171.964L171.126 75.8193L170.26 78.3955H169.323L168.071 74.5884H169.015L169.874 77.2648L170.769 74.5884H171.584L172.457 77.2863L173.338 74.5884H174.153Z" fill="#263238"/>
<path d="M174.361 76.492C174.338 76.076 174.44 75.6627 174.655 75.3055C174.869 74.9483 175.186 74.6637 175.564 74.4884C175.942 74.3131 176.364 74.2551 176.775 74.3221C177.186 74.389 177.568 74.5778 177.871 74.8639C178.173 75.1501 178.383 75.5205 178.473 75.9272C178.564 76.334 178.53 76.7584 178.376 77.1457C178.222 77.5329 177.956 77.8651 177.611 78.0994C177.267 78.3337 176.86 78.4593 176.443 78.4599C176.176 78.4755 175.907 78.4362 175.655 78.3443C175.403 78.2524 175.172 78.1099 174.977 77.9256C174.782 77.7413 174.627 77.519 174.521 77.2725C174.415 77.0259 174.361 76.7603 174.361 76.492ZM177.631 76.492C177.626 76.2583 177.551 76.0315 177.417 75.84C177.283 75.6484 177.096 75.5006 176.879 75.4151C176.661 75.3295 176.423 75.3101 176.195 75.3591C175.966 75.4081 175.757 75.5234 175.594 75.6906C175.431 75.8579 175.32 76.0695 175.277 76.2992C175.233 76.5288 175.258 76.7661 175.349 76.9815C175.44 77.1969 175.592 77.3808 175.787 77.5101C175.981 77.6394 176.21 77.7084 176.443 77.7085C176.601 77.7087 176.756 77.6769 176.901 77.6151C177.045 77.5533 177.176 77.4628 177.284 77.349C177.393 77.2352 177.477 77.1005 177.531 76.9532C177.586 76.8059 177.61 76.649 177.603 76.492H177.631Z" fill="#263238"/>
<path d="M181.617 78.3955L180.902 77.3364H180.093V78.3955H179.213V74.5884H180.859C181.875 74.5884 182.512 75.118 182.512 75.9695C182.523 76.2271 182.453 76.4818 182.312 76.6975C182.171 76.9132 181.965 77.0791 181.725 77.1718L182.583 78.3955H181.617ZM180.787 75.304H180.072V76.6351H180.787C181.324 76.6351 181.596 76.3846 181.596 75.9695C181.596 75.5545 181.324 75.304 180.787 75.304Z" fill="#263238"/>
<path d="M184.573 76.8999L184.058 77.4294V78.3955H183.185V74.5884H184.043V76.3631L185.732 74.5884H186.713L185.131 76.2844L186.806 78.3955H185.775L184.573 76.8999Z" fill="#263238"/>
<path d="M208.746 91.112H207.659L207.394 92.486H206.621L206.9 91.112H203.809L203.909 90.561L207.444 86.9185H208.374L204.989 90.4322H207.086L207.329 89.2228H208.045L207.802 90.4322H208.861L208.746 91.112Z" fill="#263238"/>
<path d="M211.036 87.6127L210.578 89.1369H211.115C212.546 89.1369 213.183 89.7237 213.183 90.6254C213.183 91.7776 212.239 92.5433 210.815 92.5433C210.458 92.5641 210.102 92.5112 209.767 92.3881C209.432 92.265 209.126 92.0742 208.868 91.8277L209.29 91.2122C209.497 91.4188 209.744 91.5797 210.016 91.6845C210.289 91.7893 210.58 91.8356 210.872 91.8205C211.831 91.8205 212.389 91.3983 212.389 90.6898C212.389 90.1388 211.995 89.8096 210.958 89.8096H209.612L210.478 86.897H213.613L213.484 87.6127H211.036Z" fill="#263238"/>
<path d="M214.099 88.6932C214.076 88.473 214.097 88.2503 214.161 88.0384C214.226 87.8265 214.332 87.6298 214.475 87.4601C214.617 87.2904 214.792 87.1511 214.989 87.0507C215.187 86.9502 215.403 86.8907 215.623 86.8756C215.78 86.8693 215.936 86.897 216.08 86.9569C216.225 87.0167 216.355 87.1073 216.461 87.2223C216.567 87.3374 216.647 87.4741 216.695 87.623C216.743 87.772 216.759 87.9296 216.74 88.085C216.765 88.3048 216.744 88.5274 216.681 88.7393C216.617 88.9511 216.511 89.1479 216.369 89.3178C216.228 89.4876 216.053 89.627 215.856 89.7275C215.659 89.828 215.443 89.8876 215.223 89.9026C215.066 89.9088 214.91 89.881 214.765 89.8212C214.62 89.7614 214.49 89.6709 214.383 89.5561C214.276 89.4412 214.196 89.3046 214.147 89.1557C214.098 89.0068 214.082 88.849 214.099 88.6932ZM219.037 86.9185H219.674L214.815 92.486H214.164L219.037 86.9185ZM216.246 88.1279C216.246 87.5983 216.003 87.3264 215.602 87.3264C214.958 87.3264 214.643 88.042 214.643 88.6503C214.643 89.2586 214.886 89.4518 215.287 89.4518C215.924 89.4804 216.246 88.7648 216.246 88.1279ZM217.126 91.3196C217.102 91.0995 217.122 90.8768 217.186 90.6649C217.25 90.4529 217.357 90.2563 217.5 90.0869C217.642 89.9176 217.818 89.779 218.016 89.6796C218.214 89.5803 218.43 89.5222 218.651 89.509C218.807 89.5026 218.962 89.5302 219.107 89.5902C219.251 89.6501 219.381 89.7408 219.486 89.856C219.592 89.9712 219.671 90.108 219.718 90.257C219.766 90.4059 219.78 90.5634 219.76 90.7184C219.784 90.9379 219.764 91.1601 219.701 91.3716C219.637 91.583 219.531 91.7793 219.389 91.9486C219.247 92.1179 219.072 92.2566 218.875 92.3564C218.678 92.4561 218.463 92.5148 218.243 92.5289C218.085 92.5376 217.928 92.5115 217.782 92.4525C217.636 92.3936 217.505 92.3032 217.397 92.1877C217.29 92.0723 217.21 91.9347 217.161 91.7846C217.113 91.6346 217.099 91.4758 217.119 91.3196H217.126ZM219.273 90.7542C219.273 90.2318 219.023 89.9527 218.629 89.9527C217.992 89.9527 217.663 90.6684 217.663 91.2838C217.663 91.8992 217.921 92.0853 218.307 92.0853C218.915 92.0853 219.237 91.3625 219.237 90.7542H219.273Z" fill="#263238"/>
<g opacity="0.3">
<path d="M135.66 84.4568L132.247 94.9835H135.66L138.866 84.4568H135.66Z" fill="white"/>
</g>
<g opacity="0.3">
<path d="M144.09 84.4568L140.677 94.9835H144.09L147.296 84.4568H144.09Z" fill="white"/>
</g>
<g opacity="0.3">
<path d="M152.513 84.4568L149.107 94.9835H152.513L155.726 84.4568H152.513Z" fill="white"/>
</g>
<g opacity="0.3">
<path d="M160.943 84.4568L157.537 94.9835H160.943L164.156 84.4568H160.943Z" fill="white"/>
</g>
<g opacity="0.3">
<path d="M169.373 84.4568L165.96 94.9835H169.373L172.586 84.4568H169.373Z" fill="white"/>
</g>
<path d="M41.6354 233.448C41.6354 233.448 59.762 241.614 78.64 241.614C96.1153 241.614 114.614 232.819 114.614 232.819L41.6354 233.448Z" fill="#3A3E47"/>
<path d="M80.6079 233.606H73.1225V312.016H80.6079V233.606Z" fill="#3A3E47"/>
<path d="M110.077 307.415H43.6391V312.009H110.077V307.415Z" fill="#3A3E47"/>
<path d="M51.7685 313.519C51.7713 314.523 51.476 315.506 50.9199 316.342C50.3638 317.179 49.572 317.831 48.6447 318.217C47.7174 318.603 46.6965 318.705 45.7111 318.511C44.7258 318.316 43.8204 317.833 43.1097 317.123C42.3989 316.414 41.9149 315.509 41.7187 314.524C41.5226 313.539 41.6233 312.518 42.008 311.59C42.3927 310.662 43.0441 309.869 43.8797 309.312C44.7153 308.755 45.6975 308.458 46.7019 308.459C48.0439 308.461 49.3304 308.995 50.2799 309.943C51.2295 310.891 51.7647 312.177 51.7685 313.519Z" fill="#263238"/>
<path d="M81.2949 313.519C81.2949 314.522 80.9973 315.503 80.4398 316.338C79.8823 317.172 79.0899 317.822 78.1628 318.206C77.2357 318.59 76.2155 318.691 75.2313 318.495C74.2471 318.299 73.3431 317.816 72.6335 317.107C71.9239 316.397 71.4407 315.493 71.2449 314.509C71.0491 313.524 71.1496 312.504 71.5336 311.577C71.9177 310.65 72.568 309.858 73.4023 309.3C74.2367 308.743 75.2177 308.445 76.2212 308.445C77.5668 308.445 78.8573 308.98 79.8088 309.931C80.7603 310.883 81.2949 312.173 81.2949 313.519Z" fill="#263238"/>
<path d="M115.494 313.519C115.494 314.522 115.197 315.503 114.639 316.338C114.082 317.172 113.289 317.822 112.362 318.206C111.435 318.59 110.415 318.691 109.431 318.495C108.446 318.299 107.542 317.816 106.833 317.107C106.123 316.397 105.64 315.493 105.444 314.509C105.249 313.524 105.349 312.504 105.733 311.577C106.117 310.65 106.767 309.858 107.602 309.3C108.436 308.743 109.417 308.445 110.421 308.445C111.766 308.445 113.057 308.98 114.008 309.931C114.96 310.883 115.494 312.173 115.494 313.519Z" fill="#263238"/>
<path d="M78.6328 261.823H68.4495V266.038H78.6328V261.823Z" fill="#3A3E47"/>
<path d="M70.303 258.874H66.5961V268.986H70.303V258.874Z" fill="#3A3E47"/>
<path d="M39.8606 114.105H70.2601V223.473H31.5595V122.399C31.5633 120.199 32.4393 118.091 33.9954 116.536C35.5516 114.981 37.6608 114.107 39.8606 114.105Z" fill="#455A64"/>
<path d="M40.1182 221.812C40.0181 221.812 39.9322 198.083 39.9322 168.814C39.9322 139.545 40.0181 115.808 40.1182 115.808C40.2184 115.808 40.3043 139.538 40.3043 168.814C40.3043 198.09 40.2041 221.812 40.1182 221.812Z" fill="#263238"/>
<path d="M31.5595 223.251H127.316V235.144H37.2486C35.7303 235.144 34.2741 234.541 33.2005 233.468C32.1268 232.394 31.5237 230.938 31.5237 229.419V223.222L31.5595 223.251Z" fill="#455A64"/>
<path d="M85.7603 70.8744L81.6098 110.441C80.8941 117.175 81.2448 127.201 91.9361 127.83C101.239 127.68 104.502 119.171 105.154 112.895C105.468 109.911 105.726 107.428 105.783 107.128C105.783 107.128 115.952 107.235 117.727 97.3379C118.586 92.5576 119.545 82.5676 120.31 73.5221C120.707 68.8346 119.323 64.1698 116.434 60.4566C113.546 56.7434 109.365 54.2543 104.724 53.4849L103.765 53.3203C93.3531 52.1896 86.5833 60.412 85.7603 70.8744Z" fill="#FFBE9D"/>
<path d="M105.783 107.106C101.205 106.332 96.9458 104.261 93.5105 101.138C93.5105 101.138 95.4498 108.902 105.49 109.661L105.783 107.106Z" fill="#EB996E"/>
<path d="M102.885 76.0125C102.67 76.1914 101.604 75.1609 99.9367 74.9605C98.2693 74.7602 96.9455 75.4686 96.788 75.2396C96.7093 75.1323 96.9526 74.7816 97.5036 74.4524C98.2805 74.0266 99.1727 73.8587 100.051 73.973C100.921 74.0822 101.733 74.4657 102.37 75.0679C102.864 75.533 102.992 75.9266 102.885 76.0125Z" fill="#263238"/>
<path d="M102.72 79.8411C102.666 80.191 102.476 80.5056 102.193 80.7181C101.91 80.9306 101.555 81.0242 101.203 80.9789C101.031 80.9637 100.864 80.9144 100.711 80.834C100.559 80.7536 100.423 80.6436 100.313 80.5104C100.204 80.3772 100.121 80.2235 100.071 80.0582C100.021 79.893 100.005 79.7194 100.023 79.5477C100.079 79.1986 100.269 78.885 100.552 78.6728C100.835 78.4607 101.189 78.3664 101.54 78.4098C101.712 78.425 101.879 78.4743 102.032 78.5547C102.184 78.6352 102.32 78.7452 102.43 78.8784C102.539 79.0115 102.622 79.1652 102.672 79.3305C102.722 79.4958 102.738 79.6693 102.72 79.8411Z" fill="#263238"/>
<path d="M105.998 88.0492C106.843 87.933 107.698 87.9209 108.546 88.0134C108.939 88.0134 109.326 88.0134 109.433 87.7701C109.531 87.3713 109.506 86.9523 109.361 86.5679L108.71 83.4191C107.809 78.9322 107.229 75.2754 107.415 75.2396C107.601 75.2039 108.467 78.8177 109.361 83.2903C109.576 84.3995 109.776 85.4372 109.97 86.4605C110.136 86.9709 110.115 87.5237 109.912 88.0206C109.836 88.1464 109.732 88.2531 109.608 88.3325C109.484 88.4118 109.343 88.4618 109.197 88.4786C108.971 88.508 108.743 88.508 108.517 88.4786C107.663 88.4392 106.817 88.295 105.998 88.0492Z" fill="#263238"/>
<path d="M102.756 69.665C102.556 70.0228 101.246 69.6149 99.6362 69.5505C98.026 69.4861 96.6807 69.7151 96.5232 69.343C96.4588 69.164 96.7379 68.8492 97.3176 68.5701C98.0696 68.2241 98.8961 68.0716 99.722 68.1264C100.549 68.1699 101.352 68.4156 102.062 68.842C102.599 69.1497 102.842 69.4932 102.756 69.665Z" fill="#263238"/>
<path d="M118.335 74.2234C118.135 74.5097 116.861 74.0517 115.287 73.8585C113.712 73.6653 112.381 73.744 112.238 73.4148C112.181 73.2574 112.467 73.0141 113.04 72.8208C113.81 72.5955 114.62 72.5369 115.416 72.6491C116.218 72.7521 116.99 73.0201 117.684 73.4363C118.206 73.7726 118.428 74.0875 118.335 74.2234Z" fill="#263238"/>
<path d="M85.3453 78.3311C85.1879 78.2238 78.8689 75.1824 77.9601 81.9951C77.0513 88.8078 84.0786 88.314 84.1144 88.1208C84.1502 87.9276 85.3453 78.3311 85.3453 78.3311Z" fill="#FFBE9D"/>
<path d="M82.3826 85.2655C82.3826 85.2655 82.2467 85.3299 82.0391 85.3943C81.7392 85.4772 81.4188 85.4413 81.1446 85.2941C80.429 84.9363 80.0068 83.7126 80.1427 82.4817C80.2017 81.8934 80.3925 81.3259 80.7009 80.8215C80.7928 80.617 80.9335 80.4382 81.1107 80.301C81.2879 80.1637 81.4962 80.0721 81.7171 80.0343C81.8571 80.016 81.9991 80.0475 82.1182 80.1234C82.2372 80.1993 82.3258 80.3147 82.3683 80.4493C82.4399 80.6497 82.3683 80.7857 82.4112 80.8C82.4542 80.8143 82.5758 80.707 82.5544 80.4136C82.5429 80.2408 82.4691 80.0781 82.3468 79.9556C82.1771 79.7877 81.9486 79.6927 81.7099 79.6908C81.4227 79.7104 81.1452 79.8028 80.9036 79.9593C80.662 80.1158 80.4642 80.3313 80.3288 80.5853C79.959 81.1343 79.7304 81.766 79.6633 82.4244C79.5273 83.8056 80.0569 85.1867 81.0015 85.6018C81.1772 85.6794 81.3682 85.7165 81.5602 85.7103C81.7522 85.7041 81.9403 85.6548 82.1107 85.566C82.3468 85.43 82.4256 85.2798 82.3826 85.2655Z" fill="#EB996E"/>
<path d="M103.944 92.6077C104.037 92.4431 102.735 91.8921 101.905 90.5682C101.565 89.9817 101.303 89.354 101.125 88.7004C100.974 88.1852 100.853 87.856 100.774 87.8703C100.695 87.8846 100.688 88.2281 100.774 88.7791C100.859 89.5169 101.103 90.2274 101.49 90.8616C101.883 91.5004 102.445 92.0181 103.114 92.3572C103.572 92.6148 103.894 92.6649 103.944 92.6077Z" fill="#263238"/>
<path d="M77.2731 66.4161C78.9262 64.1332 79.5202 61.2851 80.5506 58.6659C81.5811 56.0468 83.3344 53.399 86.0609 52.6977L86.1182 52.7335C88.5727 52.0178 91.4924 52.254 93.2743 54.0788C94.083 50.5651 97.4607 48.039 101.017 47.4522C104.574 46.8654 110.084 47.9173 113.29 49.599C115.766 50.8728 118.056 53.2201 120.79 56.6193C121.949 58.0482 122.988 59.5705 123.896 61.1706L126.042 70.767L123.008 75.4114C122.824 75.7362 122.623 76.0515 122.407 76.356L119.13 86.439C119.237 83.6195 120.346 73.8728 120.453 71.0461C118.348 70.7885 116.316 70.108 114.48 69.0455C112.644 67.983 111.042 66.5604 109.769 64.8632C108.395 63.024 107.386 60.7842 105.426 59.5819C102.907 58.029 99.7006 58.6874 96.788 59.403L96.9168 59.3028C95.3998 59.8426 94.0005 60.6686 92.7949 61.7359C92.9066 67.3352 91.8107 72.8928 89.5817 78.0305C89.2454 78.8034 88.3867 80.3778 87.5709 80.6139C85.9822 81.0648 85.7102 79.4618 84.8658 78.5458C84.2432 77.8731 83.2414 77.6942 82.1322 77.6012C81.5843 75.2036 81.1781 72.7758 80.9156 70.3305C79.9682 70.5257 78.9884 70.4988 78.0531 70.2518L79.1337 68.2194C78.7425 68.4553 78.3061 68.6065 77.8528 68.6631C77.6162 68.6928 77.3765 68.6454 77.1689 68.5282C76.9614 68.4109 76.7972 68.2298 76.7006 68.0119C76.5217 67.4609 76.9296 66.8955 77.2731 66.4161Z" fill="#263238"/>
<path d="M96.3229 55.51C95.9414 55.7585 95.5779 56.0335 95.2351 56.333C94.3599 57.213 93.7286 58.3055 93.4031 59.5032C93.1544 60.3217 92.9889 61.1632 92.9094 62.015C92.8235 62.9382 92.8092 63.9257 92.7806 64.9705C92.7725 66.0667 92.6961 67.1614 92.5515 68.248C92.4662 68.8241 92.3394 69.3933 92.1723 69.9512C92.0273 70.5521 91.7318 71.1062 91.3135 71.5613C91.1241 71.736 90.8931 71.8592 90.6426 71.9193C90.3921 71.9794 90.1304 71.9744 89.8823 71.9048C89.4003 71.7698 88.9772 71.4776 88.6801 71.0747C88.2107 70.2791 87.9636 69.3721 87.9644 68.4484L88.1648 68.4913C87.7863 69.2179 87.3041 69.8857 86.7336 70.4736C86.1916 71.0165 85.461 71.3293 84.6941 71.3467C84.3393 71.3493 83.9905 71.2553 83.685 71.0747C83.4028 70.8931 83.1811 70.6315 83.0481 70.3233C82.9249 70.0373 82.8805 69.7235 82.9193 69.4145C82.9647 69.1379 83.1037 68.8853 83.3129 68.6989L83.406 68.8062C82.5823 69.6074 81.5512 70.1626 80.429 70.4092C80.3503 70.4338 80.2682 70.4459 80.1857 70.445C80.2598 70.4145 80.3364 70.3906 80.4147 70.3734C80.5721 70.3233 80.8011 70.2589 81.0874 70.1444C81.9149 69.8201 82.6692 69.3335 83.3058 68.7132L83.406 68.8205C83.223 69.0146 83.1048 69.2606 83.0677 69.5246C83.0305 69.7886 83.0762 70.0577 83.1984 70.2947C83.3203 70.5698 83.5223 70.8017 83.7781 70.9602C84.055 71.1246 84.3721 71.2088 84.6941 71.2035C85.4096 71.1754 86.0876 70.876 86.5905 70.3663C87.1341 69.7882 87.592 69.1351 87.9501 68.4269L88.1219 68.1192V68.4699C88.1375 69.3552 88.3842 70.2211 88.8375 70.9817C89.1099 71.3286 89.486 71.5793 89.9109 71.6973C90.125 71.7598 90.3517 71.7656 90.5687 71.7141C90.7857 71.6627 90.9856 71.5558 91.1489 71.4039C91.5344 70.9767 91.8074 70.4602 91.9433 69.9011C92.1104 69.3529 92.2371 68.7933 92.3226 68.2266C92.4665 67.1493 92.5454 66.0644 92.5587 64.9777C92.5587 63.9329 92.616 62.9453 92.709 62.015C92.7991 61.1501 92.9765 60.2966 93.2385 59.4674C93.587 58.2526 94.2541 57.1531 95.1707 56.2829C95.5084 55.9621 95.898 55.7008 96.3229 55.51Z" fill="#455A64"/>
<path d="M126.286 68.0692L126.2 68.1264L125.935 68.2838C125.793 68.3731 125.645 68.452 125.491 68.52C125.305 68.5987 125.098 68.7061 124.855 68.7848C123.459 69.264 121.967 69.3918 120.511 69.1569C118.344 68.8116 116.324 67.8473 114.693 66.3803C112.732 64.5699 111.161 62.3783 110.077 59.9397C109.462 58.6659 108.982 57.3707 108.438 56.1684C107.949 54.9982 107.291 53.906 106.485 52.9267C105.766 52.0367 104.833 51.3446 103.772 50.9158C103.293 50.7334 102.789 50.6272 102.277 50.6009C101.796 50.5821 101.314 50.6279 100.846 50.7369C99.4293 51.0778 98.1945 51.9419 97.3891 53.1557C97.1191 53.6069 96.9007 54.087 96.7379 54.5869C96.7332 54.5537 96.7332 54.52 96.7379 54.4867C96.7379 54.4009 96.7809 54.3078 96.8095 54.1862C96.9237 53.8017 97.0873 53.4337 97.2961 53.0913C97.629 52.5464 98.0526 52.0624 98.5484 51.66C99.2054 51.13 99.9696 50.7491 100.788 50.5437C101.787 50.2861 102.84 50.3386 103.808 50.694C104.901 51.1317 105.866 51.8381 106.613 52.7478C107.434 53.7405 108.107 54.8469 108.61 56.0325C109.161 57.249 109.641 58.5371 110.249 59.8038C111.326 62.2113 112.873 64.3792 114.8 66.1799C116.404 67.6337 118.391 68.5973 120.525 68.9565C121.96 69.2047 123.433 69.1016 124.819 68.656C125.792 68.3626 126.271 68.0119 126.286 68.0692Z" fill="#455A64"/>
<path d="M118.056 78.0305C117.841 78.2166 116.775 77.1789 115.108 76.9857C113.44 76.7925 112.117 77.4867 111.966 77.2577C111.888 77.1503 112.124 76.8068 112.682 76.4705C113.46 76.0481 114.352 75.8827 115.229 75.9982C116.1 76.1004 116.913 76.4821 117.548 77.0859C118.035 77.5654 118.164 77.9661 118.056 78.0305Z" fill="#263238"/>
<path d="M116.639 81.1363C116.586 81.487 116.397 81.8028 116.114 82.0157C115.83 82.2285 115.474 82.3213 115.122 82.2741C114.95 82.259 114.783 82.2097 114.631 82.1292C114.479 82.0486 114.344 81.9385 114.235 81.8052C114.125 81.6719 114.044 81.5181 113.994 81.3529C113.945 81.1876 113.93 81.0143 113.949 80.8429C114.003 80.4944 114.192 80.1809 114.473 79.9686C114.755 79.7563 115.108 79.6618 115.458 79.7051C115.63 79.7203 115.798 79.7695 115.95 79.85C116.103 79.9304 116.238 80.0404 116.348 80.1736C116.458 80.3068 116.541 80.4605 116.59 80.6257C116.64 80.791 116.657 80.9646 116.639 81.1363Z" fill="#263238"/>
<path d="M123.216 59.9039C123.931 61.1133 125.141 62.2726 126.551 62.2726C127.067 62.2185 127.579 62.1252 128.082 61.9935C128.54 62.337 128.254 63.9973 127.867 64.4195C127.51 64.7768 127.122 65.1024 126.708 65.3927C128.254 66.4447 129.792 66.1656 131.603 65.7147C131.273 67.1852 130.563 68.5436 129.545 69.6547C128.527 70.7659 127.235 71.591 125.799 72.048C125.353 72.2303 124.87 72.304 124.39 72.2629C123.909 72.2219 123.446 72.0672 123.037 71.8118C122.442 71.1993 122.093 70.3893 122.056 69.5361C121.584 66.458 121.495 63.3332 121.792 60.2331L123.216 59.9039Z" fill="#263238"/>
<path d="M104.731 116.388C104.731 116.388 111.029 118.942 114.614 127.659C117.133 133.784 131.145 153.12 131.145 153.12L168.4 161.393L169.674 173.279L110.084 172.785L101.804 146.415L104.731 116.388Z" fill="#FED36A"/>
<path d="M79.6418 105.403L73.0295 108.18C66.911 110.741 59.0821 116.645 56.4558 122.742C50.1512 137.427 44.4406 156.298 42.2508 172.993C40.0395 189.831 44.4406 214.749 44.4406 214.749L100.359 182.797L97.0886 180.514L107.687 122.864L105.712 115.887L107.029 109.983C107.029 109.983 92.1937 104.029 81.3879 99.7567L79.6418 105.403Z" fill="#FED36A"/>
<g opacity="0.3">
<path d="M74.3033 198.09C74.5084 195.227 74.7136 192.348 74.9187 189.452C74.2629 190.077 73.4045 190.445 72.4999 190.49C73.8989 189.155 75.1402 187.664 76.1997 186.046L73.6521 187.141C74.5506 186.45 75.2839 185.567 75.7989 184.557C74.4321 183.491 72.5071 183.67 70.7896 183.842C61.9517 184.736 53.0351 184.142 44.1615 183.548C43.2727 183.497 42.4057 183.253 41.621 182.833C41.621 182.833 41.4421 180.4 41.8357 179.491C42.2293 178.582 42.8447 178.847 43.775 178.51C44.7195 178.223 45.7005 178.074 46.6876 178.067C57.4863 177.494 68.3064 178.382 79.0836 179.276C79.7556 179.266 80.4155 179.455 80.98 179.82C81.8602 180.536 81.7815 181.881 81.6312 183.004C81.0778 187.041 80.5292 191.074 79.9853 195.106" fill="black"/>
</g>
<path d="M107.029 120.545C107.028 120.728 107.011 120.91 106.978 121.089L106.749 122.628C106.549 123.959 106.227 125.891 105.805 128.267C104.96 133.026 103.694 139.574 102.227 146.787C100.76 154.001 99.2712 160.52 98.2049 165.229C97.6682 167.554 97.2317 169.451 96.9168 170.803C96.7665 171.433 96.6449 171.934 96.5519 172.313C96.5186 172.493 96.4658 172.668 96.3944 172.836C96.4131 172.655 96.4417 172.476 96.4803 172.299C96.5519 171.912 96.652 171.404 96.7809 170.775C97.0599 169.408 97.4965 167.511 97.9473 165.171L101.826 146.73C103.329 139.516 104.638 132.976 105.547 128.231C105.984 125.891 106.349 123.98 106.606 122.614C106.728 121.984 106.828 121.476 106.9 121.089C106.924 120.904 106.967 120.722 107.029 120.545Z" fill="#263238"/>
<path d="M56.4558 202.391C56.5559 202.267 56.6686 202.154 56.7921 202.054L57.794 201.131C58.2234 200.73 58.7672 200.251 59.4185 199.7C60.0697 199.149 60.7853 198.533 61.6297 197.897C63.2828 196.573 65.3223 195.091 67.6481 193.538C69.9738 191.986 72.6574 190.411 75.4698 188.894C78.2821 187.377 81.1375 186.117 83.728 185.051C86.3185 183.985 88.6944 183.162 90.7196 182.547C91.7214 182.21 92.6517 181.967 93.4604 181.738C94.269 181.509 94.9703 181.33 95.5428 181.194L96.8739 180.893C97.0247 180.846 97.181 180.817 97.339 180.808C97.1945 180.875 97.0434 180.928 96.8882 180.965L95.5786 181.337C95.0133 181.495 94.3191 181.688 93.5176 181.938C92.7161 182.189 91.8001 182.446 90.7983 182.797C88.7946 183.448 86.433 184.314 83.8568 185.373C81.2806 186.432 78.4968 187.728 75.6487 189.223C72.8005 190.719 70.1742 192.308 67.8341 193.825C65.494 195.342 63.4545 196.816 61.7871 198.118C60.9356 198.741 60.2056 199.356 59.5473 199.872C58.8889 200.387 58.3379 200.859 57.887 201.238L56.8422 202.104C56.724 202.213 56.5945 202.309 56.4558 202.391Z" fill="#263238"/>
<path d="M85.1592 181.287C85.2093 181.38 79.7706 184.436 72.9937 188.114C66.2168 191.792 60.7209 194.705 60.6708 194.612C60.6207 194.519 66.0594 191.47 72.8363 187.785C79.6132 184.099 85.1091 181.201 85.1592 181.287Z" fill="#263238"/>
<g opacity="0.3">
<path d="M65.5084 137.119C68.9791 152.147 79.5917 165.558 93.718 171.676C83.5556 160.798 74.1314 149.254 65.5084 137.119Z" fill="black"/>
</g>
<g opacity="0.3">
<path d="M106.141 125.698C107.508 132.053 106.492 140.01 103.279 145.642L102.484 143.996C103.608 139.223 105.218 130.757 106.113 125.698" fill="black"/>
</g>
<path d="M135.868 277.337L129.163 297.503C129.163 297.503 147.418 311.1 146.538 314.943L106.964 303.35L116.117 271.491L135.868 277.337Z" fill="#455A64"/>
<g opacity="0.3">
<path d="M135.868 277.337L129.163 297.503C129.163 297.503 147.418 311.1 146.538 314.943L106.964 303.35L116.117 271.491L135.868 277.337Z" fill="black"/>
</g>
<path d="M117.426 292.208C117.012 292.211 116.614 292.368 116.308 292.649C116.003 292.929 115.812 293.312 115.773 293.725C115.761 294.139 115.909 294.542 116.186 294.85C116.463 295.158 116.849 295.347 117.262 295.378C117.702 295.373 118.124 295.204 118.446 294.905C118.769 294.607 118.969 294.199 119.008 293.761C118.975 293.328 118.775 292.925 118.451 292.636C118.126 292.348 117.703 292.197 117.269 292.215" fill="#E0E0E0"/>
<g opacity="0.6">
<path d="M106.964 303.35L108.009 300.173L145.565 312.474C145.565 312.474 147.103 313.755 146.538 314.943L106.964 303.35Z" fill="white"/>
</g>
<path d="M129.864 297.489C129.799 297.682 128.812 297.489 127.674 297.833C126.536 298.176 125.799 298.834 125.642 298.706C125.484 298.577 126.1 297.546 127.481 297.16C128.862 296.773 129.957 297.324 129.864 297.489Z" fill="#263238"/>
<path d="M133.514 300.423C133.514 300.623 132.569 300.709 131.674 301.332C130.78 301.954 130.336 302.763 130.143 302.699C129.95 302.634 130.143 301.511 131.281 300.752C132.419 299.994 133.564 300.237 133.514 300.423Z" fill="#263238"/>
<path d="M134.415 306.084C134.229 306.084 134.243 305.032 135.045 304.116C135.846 303.2 136.884 303.042 136.913 303.228C136.941 303.414 136.197 303.815 135.574 304.574C134.952 305.332 134.616 306.119 134.415 306.084Z" fill="#263238"/>
<path d="M130.88 292.716C130.751 292.873 129.943 292.344 128.826 292.1C127.71 291.857 126.758 291.95 126.679 291.75C126.601 291.549 127.645 291.106 128.955 291.413C130.265 291.721 131.023 292.601 130.88 292.716Z" fill="#263238"/>
<path d="M147.411 286.34L146.574 307.579C146.574 307.579 167.885 315.558 168.106 319.501L126.873 319.358L126.794 286.211L147.411 286.34Z" fill="#455A64"/>
<path d="M133.828 305.747C133.431 305.866 133.091 306.127 132.874 306.481C132.657 306.835 132.579 307.257 132.655 307.665C132.76 308.067 133.015 308.413 133.368 308.631C133.721 308.85 134.145 308.924 134.551 308.839C134.971 308.712 135.328 308.434 135.555 308.058C135.781 307.683 135.859 307.237 135.775 306.806C135.624 306.399 135.322 306.066 134.93 305.878C134.539 305.69 134.09 305.661 133.678 305.797" fill="#E0E0E0"/>
<g opacity="0.6">
<path d="M126.873 319.358L126.994 316.016L166.489 317.397C166.489 317.397 168.321 318.206 168.106 319.501L126.873 319.358Z" fill="white"/>
</g>
<path d="M147.246 307.372C147.246 307.572 146.23 307.658 145.235 308.302C144.241 308.946 143.711 309.79 143.525 309.733C143.339 309.676 143.647 308.488 144.863 307.73C146.08 306.971 147.289 307.186 147.246 307.372Z" fill="#263238"/>
<path d="M151.561 309.175C151.604 309.368 150.731 309.705 150.044 310.556C149.357 311.408 149.157 312.309 148.957 312.295C148.756 312.281 148.635 311.15 149.508 310.105C150.381 309.061 151.561 308.982 151.561 309.175Z" fill="#263238"/>
<path d="M153.987 314.356C153.801 314.399 153.529 313.39 154.045 312.295C154.56 311.2 155.512 310.757 155.597 310.921C155.683 311.086 155.097 311.68 154.681 312.589C154.266 313.497 154.202 314.342 153.987 314.356Z" fill="#263238"/>
<path d="M146.896 302.505C146.81 302.692 145.887 302.412 144.749 302.505C143.611 302.599 142.724 302.935 142.602 302.763C142.48 302.591 143.317 301.876 144.699 301.804C146.08 301.733 146.996 302.348 146.896 302.505Z" fill="#263238"/>
<path d="M98.0117 182.332C98.0117 182.332 147.439 195.213 153.579 203.736C158.76 210.971 131.553 284.844 131.553 284.844L110.084 282.991L119.344 221.176L63.9626 203.571L72.3282 182.303L98.0117 182.332Z" fill="#263238"/>
<path d="M101.554 193.911C101.554 193.911 152.084 206.183 157.193 214.907C159.576 218.979 158.009 232.346 157.122 238.658C156.521 242.909 147.59 302.391 147.59 302.391H125.742L126.221 235.209L73.7236 224.625C73.7236 224.625 45.5426 226.772 44.4406 214.749L56.2053 198.805L83.9713 185.087L101.554 193.911Z" fill="#263238"/>
<path d="M97.704 192.365C97.704 192.365 97.9545 192.422 98.4196 192.558L100.566 193.152L108.81 195.456C112.388 196.458 116.768 197.682 121.827 199.185C126.887 200.687 132.619 202.505 138.838 204.859C141.953 206.024 145.169 207.35 148.484 208.838L150.989 209.969C151.833 210.381 152.655 210.837 153.451 211.336C154.265 211.846 155.033 212.425 155.748 213.068C156.49 213.72 157.113 214.498 157.587 215.365C159.29 223.108 158.26 231.573 156.993 240.225C156.442 244.583 155.733 249.027 155.068 253.572C154.402 258.116 153.694 262.767 152.985 267.49C151.554 276.944 150.123 286.733 148.606 296.752C148.32 298.648 148.041 300.538 147.754 302.412V302.577H125.57V302.391C125.763 276.929 125.942 253.872 126.085 235.216L126.2 235.352L88.8661 227.759L78.6829 225.67L76.0351 225.119C75.434 224.99 75.1334 224.911 75.1334 224.911L76.0423 225.076L78.7044 225.591L88.9305 227.595L126.25 235.051H126.364V235.173C126.243 253.829 126.093 276.886 125.928 302.355L125.742 302.169H147.583L147.404 302.327C147.683 300.444 147.969 298.562 148.248 296.666L152.635 267.404C153.35 262.672 154.047 258.032 154.724 253.486C155.397 248.941 156.113 244.498 156.671 240.139C156.967 237.964 157.255 235.817 157.537 233.699C157.838 231.614 158.024 229.514 158.095 227.409C158.167 225.333 158.167 223.289 158.095 221.276C158.052 220.267 157.995 219.272 157.909 218.284C157.901 217.316 157.704 216.358 157.329 215.465C156.874 214.63 156.276 213.881 155.562 213.254C154.864 212.624 154.112 212.056 153.315 211.558C152.53 211.059 151.718 210.605 150.882 210.198L148.391 209.06C145.085 207.579 141.872 206.241 138.766 205.074C132.562 202.705 126.83 200.895 121.785 199.349C116.739 197.803 112.36 196.587 108.789 195.564L100.559 193.245L98.4125 192.615C97.9473 192.451 97.704 192.365 97.704 192.365Z" fill="#455A64"/>
<path d="M167.684 161.98C168.006 161.493 172.178 156.677 173.302 156.677C174.425 156.677 175.713 157.965 175.713 157.965C176.465 157.62 177.302 157.508 178.118 157.643C179.084 157.965 183.578 161.815 183.578 163.261V165.672C183.68 166.31 183.68 166.96 183.578 167.597C183.421 168.721 180.716 170.646 180.716 170.646H165.28C165.28 170.646 162.339 168.664 162.704 166.796C163.069 164.928 167.684 161.98 167.684 161.98Z" fill="#FFBE9D"/>
<path d="M175.713 157.965C176.048 158.118 176.369 158.3 176.672 158.509L179.22 160.119C179.514 160.29 179.797 160.481 180.064 160.692C180.349 160.954 180.563 161.284 180.687 161.65C180.785 162.039 180.83 162.438 180.823 162.838L180.887 164.069C180.973 165.751 181.059 167.597 181.152 169.529L181.195 170.402V170.56L181.045 170.596L180.1 170.825H180.057C179.616 170.811 179.191 170.653 178.848 170.374C178.532 170.112 178.268 169.794 178.068 169.436C177.705 168.785 177.433 168.086 177.259 167.361C176.959 166.149 176.782 164.909 176.73 163.661L176.816 163.776L174.118 162.717C173.784 162.599 173.46 162.453 173.152 162.28C173.498 162.351 173.838 162.451 174.168 162.581L176.901 163.533H176.98V163.618C177.063 164.846 177.262 166.063 177.574 167.254C177.75 167.945 178.017 168.609 178.368 169.229C178.523 169.556 178.758 169.837 179.053 170.047C179.347 170.256 179.691 170.386 180.05 170.424H180.007L180.952 170.188L180.809 170.381L180.766 169.501C180.687 167.569 180.601 165.729 180.53 164.041C180.53 163.618 180.53 163.211 180.487 162.81C180.494 162.437 180.458 162.065 180.379 161.701C180.28 161.381 180.1 161.093 179.857 160.863C179.603 160.658 179.338 160.467 179.063 160.291L176.579 158.588C176.274 158.405 175.984 158.197 175.713 157.965Z" fill="#EB996E"/>
<path d="M165.28 170.095C165.619 170.022 165.964 169.976 166.31 169.959L169.123 169.737H169.166C170.212 169.983 171.27 170.174 172.336 170.309C172.95 170.393 173.569 170.443 174.189 170.46C174.49 170.509 174.799 170.491 175.092 170.407C175.385 170.323 175.656 170.175 175.885 169.973C176.077 169.7 176.171 169.369 176.15 169.036C176.15 168.685 176.1 168.32 176.086 167.948C176.045 167.645 175.898 167.366 175.671 167.161C175.445 166.934 175.187 166.741 174.905 166.588C173.884 166.074 172.734 165.87 171.599 166.001C171.192 166.039 170.782 165.98 170.402 165.828C170.022 165.677 169.684 165.437 169.416 165.128C169.08 164.649 169.108 164.298 169.13 164.305C169.224 164.564 169.359 164.805 169.531 165.021C169.799 165.289 170.124 165.493 170.482 165.617C170.841 165.741 171.222 165.782 171.599 165.737C172.784 165.561 173.995 165.75 175.069 166.281C175.381 166.446 175.668 166.656 175.921 166.903C176.219 167.172 176.407 167.542 176.451 167.941C176.451 168.27 176.522 168.656 176.522 169.028C176.542 169.448 176.418 169.862 176.171 170.202C175.922 170.491 175.581 170.685 175.205 170.753C174.868 170.816 174.525 170.838 174.182 170.818C173.524 170.818 172.894 170.732 172.293 170.653C171.215 170.498 170.147 170.28 169.094 170.002H169.137L166.325 170.102C165.977 170.136 165.627 170.134 165.28 170.095Z" fill="#EB996E"/>
<path d="M180.988 170.03C181.345 169.073 181.761 168.139 182.233 167.232C182.596 166.27 183.076 165.357 183.664 164.513C183.418 165.506 183.055 166.467 182.583 167.375C182.219 168.351 181.678 169.251 180.988 170.03Z" fill="#EB996E"/>
<path d="M147.547 173.286L203.143 174.002L221.034 123.809C221.225 123.306 221.216 122.75 221.01 122.253C220.804 121.757 220.415 121.358 219.924 121.139C219.66 121.017 219.373 120.95 219.082 120.944C218.791 120.938 218.501 120.993 218.232 121.104C217.963 121.216 217.72 121.383 217.519 121.593C217.317 121.803 217.162 122.054 217.062 122.327L199.422 169.859L147.497 170.374C147.117 170.374 146.753 170.525 146.485 170.793C146.216 171.061 146.065 171.425 146.065 171.805C146.058 172.001 146.092 172.197 146.164 172.38C146.236 172.563 146.345 172.729 146.484 172.868C146.623 173.007 146.789 173.116 146.972 173.188C147.155 173.26 147.35 173.293 147.547 173.286Z" fill="#263238"/>
<path d="M64.6997 135.996C64.6997 135.996 91.8932 172.964 96.1082 172.964H135.789V157.936L105.783 150.859C105.783 150.859 91.013 120.302 87.7354 116.388C84.4579 112.473 75.7202 107.199 69.1866 113.096C62.653 118.993 64.6997 135.996 64.6997 135.996Z" fill="#FED36A"/>
<path d="M135.761 159.418L142.266 158.895C142.266 158.895 142.401 156.484 143.826 155.632C145.25 154.781 145.099 152.934 145.972 153.077C146.445 153.17 146.931 153.17 147.404 153.077L152.792 148.54L157.336 145.563L160.914 144.848C160.914 144.848 163.061 145.413 160.914 147.395L158.639 148.676L156.657 150.666L161.194 148.433C161.402 148.332 161.631 148.28 161.863 148.28C162.094 148.28 162.323 148.332 162.532 148.433C163.759 148.963 164.93 149.618 166.024 150.387C166.122 150.478 166.2 150.589 166.253 150.712C166.307 150.835 166.334 150.968 166.334 151.102C166.334 151.236 166.307 151.369 166.253 151.492C166.2 151.615 166.122 151.726 166.024 151.818L168.006 153.521C168.006 153.521 168.436 155.797 166.16 155.224L164.321 154.802L161.859 157.192C161.859 157.192 170.096 155.489 170.661 155.761C171.227 156.033 171.942 157.321 170.661 158.452C169.38 159.582 164.414 159.303 163.283 160.441C162.153 161.579 154.639 168.435 152.792 168.857C150.946 169.279 135.803 172.979 135.803 172.979L135.761 159.418Z" fill="#FFBE9D"/>
<path d="M167.949 153.5C167.56 153.262 167.187 152.999 166.833 152.712C166.496 152.462 166.117 152.169 165.63 151.854C165.401 151.696 165.163 151.539 164.915 151.381C164.692 151.216 164.431 151.11 164.156 151.074C163.592 151.195 163.056 151.421 162.575 151.739C162.088 152.004 161.659 152.254 161.294 152.455C160.919 152.718 160.516 152.939 160.092 153.113C160.392 152.766 160.747 152.471 161.143 152.24C161.494 151.997 161.916 151.718 162.403 151.431C162.646 151.288 162.904 151.145 163.176 151.002C163.471 150.831 163.802 150.728 164.142 150.702C164.241 150.682 164.343 150.682 164.442 150.702C164.526 150.729 164.607 150.763 164.686 150.802C164.831 150.872 164.972 150.951 165.108 151.038C165.373 151.202 165.616 151.367 165.824 151.539C166.274 151.868 166.668 152.19 166.99 152.469C167.641 153.056 167.992 153.464 167.949 153.5Z" fill="#EB996E"/>
<path d="M148.019 152.526C148.076 152.612 147.404 153.199 146.588 153.958C145.772 154.716 145.157 155.346 145.078 155.267C145.38 154.658 145.806 154.119 146.33 153.686C146.789 153.166 147.369 152.768 148.019 152.526Z" fill="#EB996E"/>
<path d="M87.7354 116.388C88.3189 117.106 88.8453 117.87 89.3098 118.67C90.2473 120.223 91.5711 122.542 93.1598 125.54C96.3586 131.537 100.76 140.232 105.919 150.816L105.819 150.73L135.832 157.786H135.975V173.208H133.993H100.266H96.4302C96.2634 173.218 96.0961 173.218 95.9293 173.208C95.7605 173.175 95.5969 173.119 95.4426 173.043C95.1428 172.885 94.8578 172.701 94.5911 172.492C94.0923 172.12 93.6145 171.721 93.1598 171.297C91.4217 169.661 89.7711 167.933 88.2149 166.123C85.1664 162.66 82.49 159.318 80.0211 156.255C75.1406 150.115 71.3263 145.041 68.7072 141.534L65.7087 137.47C65.3795 137.005 65.1291 136.654 64.943 136.403C64.757 136.153 64.6926 136.031 64.6926 136.031C64.6926 136.031 64.7927 136.146 64.9788 136.382L65.7731 137.427L68.8288 141.434C71.4838 144.919 75.3338 149.964 80.2358 156.083C82.6903 159.132 85.4025 162.459 88.4511 165.916C90.0074 167.71 91.6555 169.423 93.3888 171.047C93.843 171.463 94.3208 171.852 94.8201 172.213C95.0643 172.389 95.3228 172.545 95.5929 172.678C95.8575 172.806 96.1522 172.858 96.4445 172.828H100.28H134.007H135.803L135.617 173.014C135.617 167.862 135.617 162.824 135.617 157.987L135.753 158.165L105.748 151.024H105.676L105.64 150.959C100.516 140.361 96.1511 131.637 93.0024 125.633C91.4352 122.621 90.1399 120.295 89.2239 118.728C88.7588 117.955 88.4081 117.354 88.129 116.982C87.8499 116.609 87.7354 116.388 87.7354 116.388Z" fill="#263238"/>
<path d="M83.7852 113.969C83.7852 114.033 82.8549 113.661 81.3378 113.318C80.4465 113.12 79.5427 112.984 78.6328 112.91C77.5204 112.824 76.4032 112.824 75.2909 112.91C74.1817 113.026 73.0835 113.23 72.0062 113.518C71.1253 113.759 70.2621 114.06 69.4228 114.42C67.9916 115.042 67.1757 115.572 67.14 115.515C67.3014 115.352 67.4844 115.212 67.6838 115.1C68.2053 114.756 68.7505 114.45 69.3154 114.184C70.1532 113.781 71.0218 113.446 71.9131 113.182C73.0056 112.869 74.1242 112.656 75.2551 112.545C76.3881 112.441 77.5283 112.441 78.6614 112.545C79.5863 112.639 80.5025 112.804 81.4022 113.039C82.0051 113.196 82.5958 113.397 83.1698 113.64C83.5777 113.811 83.7995 113.94 83.7852 113.969Z" fill="#263238"/>
<path d="M100.316 157.722C100.759 156.438 101.447 155.252 102.341 154.23C103.137 153.127 104.141 152.191 105.297 151.474C105.368 151.56 103.994 152.734 102.627 154.459C101.261 156.183 100.423 157.772 100.316 157.722Z" fill="#263238"/>
<path d="M99.4072 153.113C100.928 151.766 102.909 151.057 104.939 151.131C104.939 151.245 103.629 151.381 102.076 151.94C100.524 152.498 99.4716 153.206 99.4072 153.113Z" fill="#263238"/>
<path d="M124.905 230.285C124.332 229.09 122.944 228.568 121.677 228.138C96.6807 220.081 69.8593 216.216 44.0184 220.911C40.9126 221.476 37.7066 222.213 35.2377 224.188C32.7688 226.163 31.2875 229.741 32.6043 232.604L37.907 234.307C64.3669 231.362 91.082 231.549 117.498 234.865C119.28 235.094 121.155 235.316 122.801 234.615C124.447 233.914 125.685 231.888 124.905 230.285Z" fill="#455A64"/>
<path d="M95.9007 222.02C95.8439 222.031 95.7856 222.031 95.7289 222.02L95.2494 221.956L93.396 221.684C91.793 221.426 89.4672 221.054 86.5762 220.725C79.0585 219.836 71.4878 219.475 63.9197 219.644C61.7084 219.687 59.5473 219.794 57.4791 219.966C55.411 220.138 53.393 220.238 51.4679 220.41C51.2298 220.429 50.9905 220.429 50.7523 220.41C50.5286 220.389 50.3034 220.389 50.0797 220.41C49.6266 220.441 49.1767 220.508 48.7343 220.61L46.1438 221.154C44.4764 221.526 42.9449 221.934 41.5638 222.392C39.3821 223.072 37.2987 224.034 35.3665 225.255C34.6509 225.691 34.1786 226.07 33.8423 226.335L33.4559 226.629C33.37 226.693 33.3199 226.729 33.3127 226.722L33.4272 226.6L33.7922 226.278C34.2682 225.868 34.7676 225.485 35.2878 225.133C37.2049 223.848 39.2904 222.834 41.4851 222.12C42.9915 221.614 44.5225 221.184 46.0722 220.832L48.6699 220.274C49.1391 220.156 49.6182 220.082 50.1011 220.052C50.3392 220.031 50.5786 220.031 50.8167 220.052C51.0545 220.079 51.2946 220.079 51.5324 220.052C53.4287 219.873 55.4611 219.751 57.5435 219.587C59.626 219.422 61.8372 219.301 63.9841 219.258C71.5456 219.085 79.1094 219.48 86.6119 220.438C89.4744 220.803 91.8216 221.218 93.4175 221.519L95.2637 221.863L95.7361 221.963L95.9007 222.02Z" fill="#263238"/>
<path d="M33.2555 181.287L75.8634 182.775C76.0118 182.781 76.1574 182.818 76.2907 182.883C76.4241 182.949 76.5422 183.041 76.6373 183.155C76.7325 183.269 76.8026 183.402 76.8431 183.545C76.8836 183.688 76.8936 183.838 76.8724 183.985L70.7395 235.08H80.3431L85.2952 178.832C85.351 178.379 85.3119 177.918 85.1803 177.48C85.0487 177.042 84.8276 176.637 84.5308 176.289C84.2341 175.941 83.8682 175.658 83.4565 175.459C83.0448 175.26 82.5963 175.149 82.1393 175.133L32.1105 173.344L33.2555 181.287Z" fill="#455A64"/>
<path d="M259.698 177.566H253.022V179.047L267.72 319.544H274.576L259.698 177.566Z" fill="#455A64"/>
<path d="M110.635 177.566H117.312V179.076L103.608 319.501H96.7522L110.635 177.566Z" fill="#455A64"/>
<path d="M110.635 177.566C110.635 177.566 110.635 177.816 110.578 178.281C110.521 178.747 110.463 179.491 110.378 180.428C110.199 182.31 109.941 185.087 109.605 188.651C108.889 195.807 107.923 206.133 106.699 218.943C104.209 244.533 100.767 279.992 96.9311 319.494L96.7522 319.287H103.608L103.422 319.458C109.92 253.493 115.423 197.61 117.255 179.047C117.255 178.332 117.255 177.931 117.255 177.537L117.305 177.587H112.295H111.065H110.657H111.05H112.267L117.333 177.551H117.383V177.609C117.383 178.002 117.383 178.417 117.383 179.119C115.587 197.682 110.184 253.543 103.787 319.551V319.723H96.559V319.516C100.452 279.971 103.951 244.469 106.477 218.85C107.758 206.062 108.782 195.742 109.497 188.608C109.855 185.03 110.134 182.31 110.32 180.428C110.421 179.505 110.492 178.797 110.542 178.281C110.592 177.766 110.635 177.566 110.635 177.566Z" fill="#263238"/>
<path d="M285.654 172.993H94.5696V179.04H285.654V172.993Z" fill="#455A64"/>
<path d="M265.309 179.047C265.309 179.147 227.224 179.233 180.258 179.233C133.292 179.233 95.1922 179.147 95.1922 179.047C95.1922 178.947 133.27 178.861 180.258 178.861C227.245 178.861 265.309 178.933 265.309 179.047Z" fill="#263238"/>
</svg>
