<svg width="28" height="24" viewBox="0 0 28 24" fill="none" xmlns="http://www.w3.org/2000/svg">
<path d="M18.046 10.89V8C18.046 4.7 15.346 2 12.046 2C8.73597 2 6.04597 4.69 6.04597 8V10.89C6.04597 11.5 5.78597 12.43 5.47597 12.95L4.32597 14.86C3.61597 16.04 4.10597 17.35 5.40597 17.79C9.71597 19.23 14.366 19.23 18.676 17.79C19.886 17.39 20.416 15.96 19.756 14.86" stroke="#617D8A" stroke-width="1.5" stroke-miterlimit="10" stroke-linecap="round"/>
<path d="M23.7425 3.26C22.5332 2.91559 21.2518 2.91559 20.0425 3.26C20.3325 2.52 21.0525 2 21.8925 2C22.7325 2 23.4525 2.52 23.7425 3.26V3.26Z" stroke="#617D8A" stroke-width="1.5" stroke-miterlimit="10" stroke-linecap="round" stroke-linejoin="round"/>
<path d="M10 18.87C10 20.52 8.65 21.87 7 21.87C6.18 21.87 5.42 21.53 4.88 20.99C4.31816 20.4273 4.00179 19.6652 4 18.87" stroke="#617D8A" stroke-width="1.5" stroke-miterlimit="10"/>
</svg>
